{"glyphs":{"0":{"ha":946,"x_min":0,"x_max":0,"o":"m 405 -20 b 918 541 670 -34 869 217 b 595 1107 972 890 819 1099 b 81 546 340 1118 131 867 b 405 -20 31 231 156 -7 z m 429 157 b 256 545 284 159 216 321 b 568 932 296 770 419 935 b 742 542 713 929 782 768 b 429 157 703 319 578 154 z "},"1":{"ha":470,"x_min":0,"x_max":0,"o":"m 452 1103 l 172 1018 l 136 839 l 280 882 l 109 0 l 286 0 l 500 1103 z "},"2":{"ha":903,"x_min":0,"x_max":0,"o":"m 896 732 b 560 1109 927 918 815 1109 b 149 748 351 1109 189 981 l 290 709 b 542 938 317 857 429 938 b 714 723 667 938 734 840 b -19 37 686 549 481 386 l -26 0 l 771 0 l 804 171 l 381 171 b 896 732 684 323 865 549 z "},"3":{"ha":823,"x_min":0,"x_max":0,"o":"m 799 830 b 525 1124 829 993 703 1124 b 191 879 378 1124 238 1035 l 342 842 b 496 956 367 920 431 956 b 620 817 579 956 635 897 b 359 654 602 722 498 654 l 313 554 b 578 330 484 555 601 465 b 372 159 561 230 476 159 b 193 303 271 159 197 222 l 24 260 b 358 -10 33 131 158 -10 b 753 317 555 -10 718 129 b 615 608 780 466 712 565 b 799 830 701 640 780 726 z "},"4":{"ha":895,"x_min":0,"x_max":0,"o":"m 863 406 l 748 406 l 817 757 l 640 757 l 572 406 l 283 406 l 730 1096 l 535 1097 l -18 235 l 538 235 l 493 0 l 669 0 l 715 235 l 829 235 z "},"5":{"ha":846,"x_min":0,"x_max":0,"o":"m 802 923 l 836 1094 l 298 1094 l 111 526 l 219 468 b 428 596 275 557 347 596 b 611 379 558 596 631 513 b 378 161 592 252 503 161 b 189 275 288 161 213 207 l 16 221 b 360 -9 54 79 193 -9 b 787 379 586 -9 757 153 b 494 762 818 600 695 762 b 313 700 425 762 365 742 l 389 923 z "},"6":{"ha":838,"x_min":0,"x_max":0,"o":"m 505 701 b 416 684 475 701 446 696 l 741 1093 l 542 1093 b 50 391 164 630 94 563 b 370 -14 5 175 146 -14 b 774 352 572 -14 747 136 b 505 701 800 566 669 701 z m 602 359 b 392 157 587 255 513 157 b 220 363 270 157 204 253 b 439 569 235 465 319 569 b 602 359 549 569 621 481 z "},"7":{"ha":760,"x_min":0,"x_max":0,"o":"m 165 1093 l 132 926 l 587 926 l 50 0 l 248 0 l 871 1061 l 877 1093 z "},"8":{"ha":837,"x_min":0,"x_max":0,"o":"m 356 -18 b 768 325 581 -18 744 142 b 606 617 787 475 706 593 b 812 833 719 641 796 730 b 540 1112 837 987 723 1112 b 191 837 357 1112 216 986 b 309 617 174 728 224 638 b 37 327 186 602 62 481 b 356 -18 6 140 133 -18 z m 482 694 b 358 826 404 694 345 743 b 517 952 371 903 438 952 b 642 821 598 952 655 901 b 482 694 629 745 562 694 z m 381 153 b 214 336 264 153 197 237 b 433 522 230 433 321 522 b 595 336 541 522 610 442 b 381 153 580 233 494 153 z "},"9":{"ha":840,"x_min":0,"x_max":0,"o":"m 523 1107 b 119 740 320 1107 145 957 b 388 392 92 526 223 392 b 477 408 418 392 447 397 l 153 0 l 351 0 b 843 702 728 463 799 530 b 523 1107 899 915 747 1107 z m 672 730 b 454 524 658 627 574 524 b 290 734 343 524 273 611 b 501 936 305 837 379 936 b 672 730 623 936 688 840 z "}," ":{"ha":407,"x_min":0,"x_max":0,"o":""},"A":{"ha":1027,"x_min":0,"x_max":0,"o":"m 753 0 l 932 0 l 667 1116 l 635 1116 l -64 0 l 141 0 l 240 166 l 717 166 z m 328 313 l 587 749 l 684 313 z "},"Á":{"ha":1027,"x_min":0,"x_max":0,"o":"m 850 1405 l 699 1405 l 522 1183 l 646 1183 z m 753 0 l 932 0 l 667 1116 l 635 1116 l -64 0 l 141 0 l 240 166 l 717 166 z m 328 313 l 587 749 l 684 313 z "},"Ă":{"ha":1027,"x_min":0,"x_max":0,"o":"m 675 1195 b 899 1390 791 1195 878 1275 l 817 1390 b 685 1274 803 1321 749 1274 b 593 1390 619 1274 582 1328 l 511 1390 b 675 1195 492 1285 553 1195 z m 753 0 l 932 0 l 667 1116 l 635 1116 l -64 0 l 141 0 l 240 166 l 717 166 z m 328 313 l 587 749 l 684 313 z "},"Â":{"ha":1027,"x_min":0,"x_max":0,"o":"m 696 1308 l 795 1194 l 924 1194 l 747 1392 l 661 1392 l 410 1194 l 555 1194 z m 753 0 l 932 0 l 667 1116 l 635 1116 l -64 0 l 141 0 l 240 166 l 717 166 z m 328 313 l 587 749 l 684 313 z "},"Ä":{"ha":1027,"x_min":0,"x_max":0,"o":"m 519 1217 b 604 1287 558 1217 596 1249 b 547 1359 612 1326 585 1359 b 462 1287 508 1359 469 1326 b 519 1217 454 1249 481 1217 z m 823 1217 b 909 1287 863 1217 901 1249 b 850 1359 916 1326 890 1359 b 766 1287 812 1359 774 1326 b 823 1217 758 1249 785 1217 z m 753 0 l 932 0 l 667 1116 l 635 1116 l -64 0 l 141 0 l 240 166 l 717 166 z m 328 313 l 587 749 l 684 313 z "},"À":{"ha":1027,"x_min":0,"x_max":0,"o":"m 772 1183 l 681 1405 l 530 1405 l 648 1183 z m 753 0 l 932 0 l 667 1116 l 635 1116 l -64 0 l 141 0 l 240 166 l 717 166 z m 328 313 l 587 749 l 684 313 z "},"Ā":{"ha":1027,"x_min":0,"x_max":0,"o":"m 885 1319 l 497 1319 l 479 1230 l 867 1230 z m 753 0 l 932 0 l 667 1116 l 635 1116 l -64 0 l 141 0 l 240 166 l 717 166 z m 328 313 l 587 749 l 684 313 z "},"Ą":{"ha":1027,"x_min":0,"x_max":0,"o":"m 833 -236 b 768 -171 772 -236 766 -191 b 932 0 772 -112 836 -62 l 667 1116 l 635 1116 l -64 0 l 141 0 l 240 166 l 717 166 l 753 0 l 811 0 b 644 -210 724 -39 648 -116 b 820 -357 641 -302 706 -357 b 926 -345 850 -357 886 -353 l 905 -227 b 833 -236 874 -233 846 -236 z m 328 313 l 587 749 l 684 313 z "},"Å":{"ha":1027,"x_min":0,"x_max":0,"o":"m 665 1162 b 834 1308 748 1162 821 1228 b 715 1454 849 1394 794 1454 b 543 1308 631 1454 557 1390 b 665 1162 530 1227 581 1162 z m 616 1308 b 702 1380 625 1350 662 1380 b 761 1308 743 1380 769 1348 b 676 1236 753 1266 716 1236 b 616 1308 635 1236 609 1267 z m 753 0 l 932 0 l 667 1116 l 635 1116 l -64 0 l 141 0 l 240 166 l 717 166 z m 328 313 l 587 749 l 684 313 z "},"Ã":{"ha":1027,"x_min":0,"x_max":0,"o":"m 588 1292 b 776 1200 659 1292 673 1200 b 963 1347 827 1200 911 1221 l 884 1379 b 783 1291 861 1326 825 1291 b 595 1383 712 1291 698 1383 b 408 1237 545 1383 460 1362 l 487 1204 b 588 1292 510 1257 545 1292 z m 635 1116 l -64 0 l 141 0 l 240 166 l 717 166 l 753 0 l 932 0 l 667 1116 z m 328 313 l 587 749 l 684 313 z "},"Æ":{"ha":1348,"x_min":0,"x_max":0,"o":"m 1375 924 l 1408 1093 l 667 1093 l -64 0 l 138 0 l 258 178 l 608 178 l 573 0 l 1196 0 l 1229 171 l 782 171 l 841 473 l 1223 473 l 1257 644 l 874 644 l 929 924 z m 360 331 l 750 911 l 637 331 z "},"B":{"ha":863,"x_min":0,"x_max":0,"o":"m 622 616 b 777 806 680 629 756 696 b 515 1093 807 960 698 1093 l 239 1093 l 26 0 l 402 0 b 814 319 629 0 781 131 b 622 616 845 503 742 616 z m 617 785 b 445 654 599 699 535 654 l 330 654 l 383 926 l 491 926 b 617 785 583 926 633 863 z m 650 330 b 418 168 632 233 549 168 l 235 168 l 300 503 l 484 503 b 650 330 600 503 668 433 z "},"C":{"ha":1004,"x_min":0,"x_max":0,"o":"m 519 -18 b 911 138 669 -18 800 41 l 837 286 b 543 155 747 208 654 155 b 260 559 340 155 216 332 b 675 938 302 779 484 938 b 932 775 778 938 861 890 l 1063 890 b 718 1111 995 1021 863 1101 b 83 559 473 1126 147 937 b 519 -18 26 228 209 -18 z "},"Ć":{"ha":1004,"x_min":0,"x_max":0,"o":"m 643 1183 l 847 1405 l 696 1405 l 519 1183 z m 519 -18 b 911 138 669 -18 800 41 l 837 286 b 543 155 747 208 654 155 b 260 559 340 155 216 332 b 675 938 302 779 484 938 b 932 775 778 938 861 890 l 1063 890 b 718 1111 995 1021 863 1101 b 83 559 473 1126 147 937 b 519 -18 26 228 209 -18 z "},"Č":{"ha":1004,"x_min":0,"x_max":0,"o":"m 960 1392 l 814 1392 l 673 1278 l 574 1392 l 446 1392 l 623 1194 l 709 1194 z m 519 -18 b 911 138 669 -18 800 41 l 837 286 b 543 155 747 208 654 155 b 260 559 340 155 216 332 b 675 938 302 779 484 938 b 932 775 778 938 861 890 l 1063 890 b 718 1111 995 1021 863 1101 b 83 559 473 1126 147 937 b 519 -18 26 228 209 -18 z "},"Ç":{"ha":1004,"x_min":0,"x_max":0,"o":"m 675 938 b 932 775 778 938 861 890 l 1063 890 b 718 1111 995 1021 863 1101 b 83 559 473 1126 147 937 b 458 -14 30 250 185 16 l 365 -112 l 382 -142 b 425 -138 398 -139 413 -138 b 474 -176 467 -138 478 -155 b 273 -248 467 -217 405 -244 l 295 -353 b 594 -172 450 -350 575 -267 b 518 -73 605 -115 574 -73 b 488 -75 507 -73 499 -74 l 543 -17 b 911 138 684 -12 806 46 l 837 286 b 543 155 747 208 654 155 b 260 559 340 155 216 332 b 675 938 302 779 484 938 z "},"Ċ":{"ha":1004,"x_min":0,"x_max":0,"o":"m 669 1217 b 766 1297 713 1217 757 1253 b 700 1379 774 1341 744 1379 b 603 1297 655 1379 611 1341 b 669 1217 594 1253 623 1217 z m 519 -18 b 911 138 669 -18 800 41 l 837 286 b 543 155 747 208 654 155 b 260 559 340 155 216 332 b 675 938 302 779 484 938 b 932 775 778 938 861 890 l 1063 890 b 718 1111 995 1021 863 1101 b 83 559 473 1126 147 937 b 519 -18 26 228 209 -18 z "},"D":{"ha":1006,"x_min":0,"x_max":0,"o":"m 537 1093 l 239 1093 l 26 0 l 325 0 b 979 545 476 0 915 56 b 537 1093 1033 950 764 1094 z m 800 547 b 358 171 766 321 600 171 l 236 171 l 382 923 l 503 923 b 800 547 682 923 838 796 z "},"Ð":{"ha":1065,"x_min":0,"x_max":0,"o":"m 595 1093 l 298 1093 l 201 600 l 69 600 l 47 485 l 179 485 l 85 0 l 383 0 b 1038 545 535 0 974 56 b 595 1093 1092 950 823 1094 z m 859 547 b 417 171 825 321 659 171 l 294 171 l 356 485 l 534 485 l 557 599 l 378 599 l 441 923 l 561 923 b 859 547 741 923 897 796 z "},"Ď":{"ha":1006,"x_min":0,"x_max":0,"o":"m 701 1194 l 952 1392 l 807 1392 l 666 1278 l 567 1392 l 438 1392 l 615 1194 z m 537 1093 l 239 1093 l 26 0 l 325 0 b 979 545 476 0 915 56 b 537 1093 1033 950 764 1094 z m 800 547 b 358 171 766 321 600 171 l 236 171 l 382 923 l 503 923 b 800 547 682 923 838 796 z "},"Đ":{"ha":1065,"x_min":0,"x_max":0,"o":"m 595 1093 l 298 1093 l 201 600 l 69 600 l 47 485 l 179 485 l 85 0 l 383 0 b 1038 545 535 0 974 56 b 595 1093 1092 950 823 1094 z m 859 547 b 417 171 825 321 659 171 l 294 171 l 356 485 l 534 485 l 557 599 l 378 599 l 441 923 l 561 923 b 859 547 741 923 897 796 z "},"E":{"ha":802,"x_min":0,"x_max":0,"o":"m 829 924 l 861 1093 l 239 1093 l 26 0 l 649 0 l 682 171 l 236 171 l 295 473 l 677 473 l 711 644 l 328 644 l 382 924 z "},"É":{"ha":802,"x_min":0,"x_max":0,"o":"m 741 1405 l 591 1405 l 413 1183 l 537 1183 z m 829 924 l 861 1093 l 239 1093 l 26 0 l 649 0 l 682 171 l 236 171 l 295 473 l 677 473 l 711 644 l 328 644 l 382 924 z "},"Ĕ":{"ha":802,"x_min":0,"x_max":0,"o":"m 567 1195 b 791 1390 682 1195 769 1275 l 708 1390 b 576 1274 694 1321 641 1274 b 485 1390 511 1274 473 1328 l 402 1390 b 567 1195 383 1285 445 1195 z m 829 924 l 861 1093 l 239 1093 l 26 0 l 649 0 l 682 171 l 236 171 l 295 473 l 677 473 l 711 644 l 328 644 l 382 924 z "},"Ě":{"ha":802,"x_min":0,"x_max":0,"o":"m 603 1194 l 854 1392 l 709 1392 l 568 1278 l 469 1392 l 340 1392 l 517 1194 z m 829 924 l 861 1093 l 239 1093 l 26 0 l 649 0 l 682 171 l 236 171 l 295 473 l 677 473 l 711 644 l 328 644 l 382 924 z "},"Ê":{"ha":802,"x_min":0,"x_max":0,"o":"m 588 1308 l 686 1194 l 815 1194 l 638 1392 l 553 1392 l 302 1194 l 447 1194 z m 829 924 l 861 1093 l 239 1093 l 26 0 l 649 0 l 682 171 l 236 171 l 295 473 l 677 473 l 711 644 l 328 644 l 382 924 z "},"Ë":{"ha":802,"x_min":0,"x_max":0,"o":"m 411 1217 b 496 1287 450 1217 488 1249 b 438 1359 503 1326 477 1359 b 353 1287 399 1359 361 1326 b 411 1217 345 1249 372 1217 z m 715 1217 b 800 1287 754 1217 792 1249 b 742 1359 808 1326 781 1359 b 658 1287 704 1359 665 1326 b 715 1217 650 1249 676 1217 z m 829 924 l 861 1093 l 239 1093 l 26 0 l 649 0 l 682 171 l 236 171 l 295 473 l 677 473 l 711 644 l 328 644 l 382 924 z "},"Ė":{"ha":802,"x_min":0,"x_max":0,"o":"m 563 1217 b 660 1297 607 1217 651 1253 b 594 1379 668 1341 638 1379 b 497 1297 549 1379 505 1341 b 563 1217 488 1253 517 1217 z m 829 924 l 861 1093 l 239 1093 l 26 0 l 649 0 l 682 171 l 236 171 l 295 473 l 677 473 l 711 644 l 328 644 l 382 924 z "},"È":{"ha":802,"x_min":0,"x_max":0,"o":"m 663 1183 l 572 1405 l 421 1405 l 539 1183 z m 829 924 l 861 1093 l 239 1093 l 26 0 l 649 0 l 682 171 l 236 171 l 295 473 l 677 473 l 711 644 l 328 644 l 382 924 z "},"Ē":{"ha":802,"x_min":0,"x_max":0,"o":"m 777 1319 l 389 1319 l 371 1230 l 759 1230 z m 829 924 l 861 1093 l 239 1093 l 26 0 l 649 0 l 682 171 l 236 171 l 295 473 l 677 473 l 711 644 l 328 644 l 382 924 z "},"Ę":{"ha":802,"x_min":0,"x_max":0,"o":"m 829 924 l 861 1093 l 239 1093 l 26 0 l 516 0 b 363 -203 435 -41 368 -114 b 539 -351 360 -295 425 -351 b 645 -338 570 -351 606 -347 l 624 -220 b 552 -229 593 -227 566 -229 b 487 -164 491 -229 485 -184 b 642 0 491 -107 550 -59 l 649 0 l 650 5 b 652 7 650 6 651 6 l 650 7 l 682 171 l 236 171 l 295 473 l 677 473 l 711 644 l 328 644 l 382 924 z "},"F":{"ha":760,"x_min":0,"x_max":0,"o":"m 829 925 l 862 1096 l 239 1096 l 26 -1 l 202 -1 l 292 462 l 675 462 l 708 633 l 326 633 l 382 925 z "},"G":{"ha":1149,"x_min":0,"x_max":0,"o":"m 632 597 l 602 439 l 909 439 b 907 433 909 437 908 435 b 545 155 886 338 750 155 b 256 545 351 155 216 314 b 680 939 298 782 494 939 b 938 785 795 939 873 876 l 1060 926 b 723 1112 987 1029 861 1110 b 80 545 407 1112 133 889 b 522 -18 29 220 208 -18 b 1116 511 821 -18 1057 198 b 1128 597 1119 526 1125 558 z "},"Ğ":{"ha":1149,"x_min":0,"x_max":0,"o":"m 736 1195 b 960 1390 852 1195 939 1275 l 878 1390 b 746 1274 864 1321 810 1274 b 654 1390 680 1274 643 1328 l 572 1390 b 736 1195 553 1285 614 1195 z m 632 597 l 602 439 l 909 439 b 907 433 909 437 908 435 b 545 155 886 338 750 155 b 256 545 351 155 216 314 b 680 939 298 782 494 939 b 938 785 795 939 873 876 l 1060 926 b 723 1112 987 1029 861 1110 b 80 545 407 1112 133 889 b 522 -18 29 220 208 -18 b 1116 511 821 -18 1057 198 b 1128 597 1119 526 1125 558 z "},"Ģ":{"ha":1149,"x_min":0,"x_max":0,"o":"m 632 597 l 602 439 l 909 439 b 907 433 909 437 908 435 b 545 155 886 338 750 155 b 256 545 351 155 216 314 b 680 939 298 782 494 939 b 938 785 795 939 873 876 l 1060 926 b 723 1112 987 1029 861 1110 b 80 545 407 1112 133 889 b 522 -18 29 220 208 -18 b 1116 511 821 -18 1057 198 b 1128 597 1119 526 1125 558 z m 485 -83 b 387 -157 436 -83 394 -117 b 446 -222 379 -199 413 -222 b 449 -256 452 -232 452 -241 b 335 -353 435 -326 367 -353 b 374 -372 334 -359 347 -372 b 551 -193 450 -372 531 -293 b 485 -83 565 -118 529 -83 z "},"Ġ":{"ha":1149,"x_min":0,"x_max":0,"o":"m 732 1217 b 829 1297 777 1217 821 1253 b 764 1379 838 1341 808 1379 b 667 1297 719 1379 675 1341 b 732 1217 658 1253 687 1217 z m 632 597 l 602 439 l 909 439 b 907 433 909 437 908 435 b 545 155 886 338 750 155 b 256 545 351 155 216 314 b 680 939 298 782 494 939 b 938 785 795 939 873 876 l 1060 926 b 723 1112 987 1029 861 1110 b 80 545 407 1112 133 889 b 522 -18 29 220 208 -18 b 1116 511 821 -18 1057 198 b 1128 597 1119 526 1125 558 z "},"H":{"ha":993,"x_min":0,"x_max":0,"o":"m 844 1093 l 755 632 l 326 632 l 415 1093 l 239 1093 l 26 0 l 203 0 l 292 462 l 722 462 l 632 0 l 808 0 l 1021 1093 z "},"Ħ":{"ha":993,"x_min":0,"x_max":0,"o":"m 1088 897 l 983 897 l 1021 1093 l 844 1093 l 806 897 l 377 897 l 415 1093 l 239 1093 l 201 897 l 94 897 l 70 772 l 176 772 l 26 0 l 203 0 l 292 462 l 722 462 l 632 0 l 808 0 l 958 772 l 1065 772 z m 755 632 l 326 632 l 353 772 l 782 772 z "},"I":{"ha":387,"x_min":0,"x_max":0,"o":"m 26 0 l 203 0 l 415 1093 l 239 1093 z "},"Í":{"ha":387,"x_min":0,"x_max":0,"o":"m 326 1183 l 530 1405 l 379 1405 l 201 1183 z m 26 0 l 203 0 l 415 1093 l 239 1093 z "},"Î":{"ha":387,"x_min":0,"x_max":0,"o":"m 90 1194 l 235 1194 l 376 1308 l 475 1194 l 604 1194 l 427 1392 l 341 1392 z m 26 0 l 203 0 l 415 1093 l 239 1093 z "},"Ï":{"ha":387,"x_min":0,"x_max":0,"o":"m 199 1217 b 284 1287 238 1217 276 1249 b 227 1359 292 1326 265 1359 b 142 1287 188 1359 149 1326 b 199 1217 134 1249 161 1217 z m 503 1217 b 589 1287 543 1217 581 1249 b 530 1359 596 1326 570 1359 b 446 1287 492 1359 454 1326 b 503 1217 438 1249 465 1217 z m 26 0 l 203 0 l 415 1093 l 239 1093 z "},"İ":{"ha":387,"x_min":0,"x_max":0,"o":"m 351 1217 b 448 1297 395 1217 439 1253 b 382 1379 456 1341 427 1379 b 286 1297 338 1379 294 1341 b 351 1217 277 1253 306 1217 z m 26 0 l 203 0 l 415 1093 l 239 1093 z "},"Ì":{"ha":387,"x_min":0,"x_max":0,"o":"m 328 1183 l 452 1183 l 361 1405 l 210 1405 z m 26 0 l 203 0 l 415 1093 l 239 1093 z "},"Ī":{"ha":387,"x_min":0,"x_max":0,"o":"m 159 1230 l 547 1230 l 565 1319 l 177 1319 z m 26 0 l 203 0 l 415 1093 l 239 1093 z "},"Į":{"ha":387,"x_min":0,"x_max":0,"o":"m 203 0 l 415 1093 l 239 1093 l 26 0 l 81 0 b -85 -210 -6 -39 -81 -116 b 90 -357 -89 -302 -24 -357 b 196 -345 121 -357 157 -353 l 175 -227 b 103 -236 144 -233 117 -236 b 38 -171 42 -236 36 -191 b 203 0 42 -112 106 -62 z "},"J":{"ha":776,"x_min":0,"x_max":0,"o":"m 186 -21 b 684 420 460 -21 628 124 l 812 1093 l 636 1093 l 509 422 b 220 150 475 244 372 150 b 73 206 151 150 107 172 l -35 66 b 186 -21 17 12 90 -21 z "},"K":{"ha":878,"x_min":0,"x_max":0,"o":"m 968 1093 l 759 1093 l 316 582 l 415 1093 l 239 1093 l 26 0 l 203 0 l 311 559 l 597 0 l 788 0 l 502 556 z "},"Ķ":{"ha":878,"x_min":0,"x_max":0,"o":"m 968 1093 l 759 1093 l 316 582 l 415 1093 l 239 1093 l 26 0 l 203 0 l 311 559 l 597 0 l 788 0 l 502 556 z m 349 -83 b 251 -157 300 -83 258 -117 b 311 -222 243 -199 277 -222 b 313 -256 316 -232 316 -241 b 199 -353 300 -326 231 -353 b 238 -372 198 -359 212 -372 b 415 -193 315 -372 395 -293 b 349 -83 429 -118 393 -83 z "},"L":{"ha":775,"x_min":0,"x_max":0,"o":"m 236 171 l 416 1093 l 239 1093 l 26 0 l 664 0 l 698 171 z "},"Ĺ":{"ha":775,"x_min":0,"x_max":0,"o":"m 735 1405 l 585 1405 l 407 1183 l 531 1183 z m 416 1093 l 239 1093 l 26 0 l 664 0 l 698 171 l 236 171 z "},"Ľ":{"ha":775,"x_min":0,"x_max":0,"o":"m 747 1154 l 613 1154 l 498 842 l 606 842 z m 416 1093 l 239 1093 l 26 0 l 664 0 l 698 171 l 236 171 z "},"Ļ":{"ha":775,"x_min":0,"x_max":0,"o":"m 236 171 l 416 1093 l 239 1093 l 26 0 l 664 0 l 698 171 z m 317 -83 b 219 -157 269 -83 227 -117 b 279 -222 212 -199 245 -222 b 281 -256 284 -232 284 -241 b 168 -353 268 -326 199 -353 b 206 -372 166 -359 180 -372 b 383 -193 283 -372 363 -293 b 317 -83 397 -118 361 -83 z "},"Ł":{"ha":775,"x_min":0,"x_max":0,"o":"m 236 171 l 306 528 l 482 639 l 509 777 l 332 666 l 416 1093 l 239 1093 l 131 539 l -21 444 l -47 307 l 104 402 l 26 0 l 664 0 l 698 171 z "},"M":{"ha":1238,"x_min":0,"x_max":0,"o":"m 1247 1117 l 587 328 l 265 1117 l 243 1117 l 26 0 l 203 0 l 317 591 l 538 18 l 538 18 l 991 591 l 876 0 l 1053 0 l 1270 1117 z "},"N":{"ha":1052,"x_min":0,"x_max":0,"o":"m 905 1096 l 766 384 l 258 1112 l 243 1112 l 26 -1 l 201 -1 l 340 711 l 848 -19 l 864 -19 l 1080 1096 z "},"Ń":{"ha":1052,"x_min":0,"x_max":0,"o":"m 863 1405 l 712 1405 l 534 1183 l 659 1183 z m 905 1096 l 766 384 l 258 1112 l 243 1112 l 26 -1 l 201 -1 l 340 711 l 848 -19 l 864 -19 l 1080 1096 z "},"Ň":{"ha":1052,"x_min":0,"x_max":0,"o":"m 724 1194 l 975 1392 l 829 1392 l 688 1278 l 589 1392 l 460 1392 l 637 1194 z m 905 1096 l 766 384 l 258 1112 l 243 1112 l 26 -1 l 201 -1 l 340 711 l 848 -19 l 864 -19 l 1080 1096 z "},"Ņ":{"ha":1052,"x_min":0,"x_max":0,"o":"m 905 1096 l 766 384 l 258 1112 l 243 1112 l 26 -1 l 201 -1 l 340 711 l 848 -19 l 864 -19 l 1080 1096 z m 436 -83 b 338 -157 387 -83 345 -117 b 397 -222 330 -199 364 -222 b 400 -256 403 -232 403 -241 b 286 -353 387 -326 318 -353 b 325 -372 285 -359 298 -372 b 502 -193 401 -372 482 -293 b 436 -83 516 -118 480 -83 z "},"Ŋ":{"ha":1052,"x_min":0,"x_max":0,"o":"m 905 1096 l 766 384 l 258 1112 l 243 1112 l 26 -1 l 201 -1 l 340 711 l 730 151 l 692 -44 b 523 -255 673 -147 614 -212 l 621 -344 b 860 -41 751 -273 837 -159 l 864 -19 l 1080 1096 z "},"Ñ":{"ha":1052,"x_min":0,"x_max":0,"o":"m 600 1292 b 788 1200 671 1292 686 1200 b 975 1347 839 1200 924 1221 l 897 1379 b 795 1291 873 1326 838 1291 b 608 1383 724 1291 710 1383 b 420 1237 557 1383 472 1362 l 499 1204 b 600 1292 522 1257 557 1292 z m 905 1096 l 766 384 l 258 1112 l 243 1112 l 26 -1 l 201 -1 l 340 711 l 848 -19 l 864 -19 l 1080 1096 z "},"O":{"ha":1149,"x_min":0,"x_max":0,"o":"m 497 -22 b 1120 535 797 -37 1070 200 b 703 1109 1168 854 993 1096 b 80 544 399 1123 129 878 b 497 -22 33 227 210 -9 z m 528 150 b 256 543 338 155 219 325 b 671 938 294 767 477 942 b 945 538 860 934 983 762 b 528 150 906 315 722 145 z "},"Ó":{"ha":1149,"x_min":0,"x_max":0,"o":"m 707 1183 l 911 1405 l 760 1405 l 583 1183 z m 497 -22 b 1120 535 797 -37 1070 200 b 703 1109 1168 854 993 1096 b 80 544 399 1123 129 878 b 497 -22 33 227 210 -9 z m 528 150 b 256 543 338 155 219 325 b 671 938 294 767 477 942 b 945 538 860 934 983 762 b 528 150 906 315 722 145 z "},"Ô":{"ha":1149,"x_min":0,"x_max":0,"o":"m 471 1194 l 616 1194 l 757 1308 l 855 1194 l 984 1194 l 807 1392 l 722 1392 z m 497 -22 b 1120 535 797 -37 1070 200 b 703 1109 1168 854 993 1096 b 80 544 399 1123 129 878 b 497 -22 33 227 210 -9 z m 528 150 b 256 543 338 155 219 325 b 671 938 294 767 477 942 b 945 538 860 934 983 762 b 528 150 906 315 722 145 z "},"Ö":{"ha":1149,"x_min":0,"x_max":0,"o":"m 581 1217 b 665 1287 619 1217 657 1249 b 608 1359 673 1326 646 1359 b 523 1287 569 1359 530 1326 b 581 1217 515 1249 542 1217 z m 884 1217 b 970 1287 924 1217 962 1249 b 911 1359 977 1326 951 1359 b 827 1287 873 1359 835 1326 b 884 1217 819 1249 846 1217 z m 497 -22 b 1120 535 797 -37 1070 200 b 703 1109 1168 854 993 1096 b 80 544 399 1123 129 878 b 497 -22 33 227 210 -9 z m 528 150 b 256 543 338 155 219 325 b 671 938 294 767 477 942 b 945 538 860 934 983 762 b 528 150 906 315 722 145 z "},"Ò":{"ha":1149,"x_min":0,"x_max":0,"o":"m 708 1183 l 832 1183 l 741 1405 l 590 1405 z m 497 -22 b 1120 535 797 -37 1070 200 b 703 1109 1168 854 993 1096 b 80 544 399 1123 129 878 b 497 -22 33 227 210 -9 z m 528 150 b 256 543 338 155 219 325 b 671 938 294 767 477 942 b 945 538 860 934 983 762 b 528 150 906 315 722 145 z "},"Ő":{"ha":1149,"x_min":0,"x_max":0,"o":"m 503 1182 l 612 1182 l 787 1404 l 652 1404 z m 717 1182 l 831 1182 l 1048 1404 l 903 1404 z m 497 -22 b 1120 535 797 -37 1070 200 b 703 1109 1168 854 993 1096 b 80 544 399 1123 129 878 b 497 -22 33 227 210 -9 z m 528 150 b 256 543 338 155 219 325 b 671 938 294 767 477 942 b 945 538 860 934 983 762 b 528 150 906 315 722 145 z "},"Ō":{"ha":1149,"x_min":0,"x_max":0,"o":"m 541 1230 l 928 1230 l 946 1319 l 558 1319 z m 497 -22 b 1120 535 797 -37 1070 200 b 703 1109 1168 854 993 1096 b 80 544 399 1123 129 878 b 497 -22 33 227 210 -9 z m 528 150 b 256 543 338 155 219 325 b 671 938 294 767 477 942 b 945 538 860 934 983 762 b 528 150 906 315 722 145 z "},"Ø":{"ha":1149,"x_min":0,"x_max":0,"o":"m 1195 1134 l 1050 1134 l 952 1024 b 703 1109 885 1074 800 1105 b 80 544 399 1123 129 878 b 169 140 56 382 91 241 l 9 -41 l 155 -41 l 247 63 b 497 -22 315 13 399 -18 b 1120 535 797 -37 1070 200 b 1030 948 1145 701 1110 845 z m 256 543 b 671 938 294 767 477 942 b 830 886 732 937 786 918 l 296 283 b 256 543 255 352 239 443 z m 945 538 b 528 150 906 315 722 145 b 370 202 467 151 413 170 l 903 804 b 945 538 945 734 962 642 z "},"Õ":{"ha":1149,"x_min":0,"x_max":0,"o":"m 548 1204 b 649 1292 571 1257 606 1292 b 837 1200 720 1292 734 1200 b 1024 1347 888 1200 972 1221 l 945 1379 b 844 1291 922 1326 886 1291 b 656 1383 773 1291 759 1383 b 469 1237 606 1383 521 1362 z m 497 -22 b 1120 535 797 -37 1070 200 b 703 1109 1168 854 993 1096 b 80 544 399 1123 129 878 b 497 -22 33 227 210 -9 z m 528 150 b 256 543 338 155 219 325 b 671 938 294 767 477 942 b 945 538 860 934 983 762 b 528 150 906 315 722 145 z "},"Œ":{"ha":1649,"x_min":0,"x_max":0,"o":"m 1676 924 l 1709 1093 l 1086 1093 l 1050 907 b 703 1109 985 1029 863 1103 b 80 544 397 1121 129 878 b 497 -22 33 227 210 -9 b 903 149 654 -30 796 37 l 874 0 l 1497 0 l 1530 171 l 1083 171 l 1142 473 l 1525 473 l 1558 644 l 1175 644 l 1230 924 z m 528 150 b 256 543 338 155 219 325 b 671 938 294 767 477 942 b 945 538 860 934 983 762 b 528 150 906 314 722 145 z "},"P":{"ha":853,"x_min":0,"x_max":0,"o":"m 26 0 l 203 0 l 277 379 l 427 379 b 883 726 687 379 852 518 b 566 1093 917 954 762 1093 l 239 1093 z m 460 549 l 310 549 l 382 923 l 533 923 b 714 727 643 923 732 848 b 460 549 697 619 607 548 z "},"Þ":{"ha":865,"x_min":0,"x_max":0,"o":"m 26 0 l 203 0 l 243 208 l 408 208 b 840 553 653 208 812 366 b 543 899 874 790 696 899 l 378 899 l 415 1093 l 239 1093 z m 275 372 l 347 736 l 499 736 b 665 553 598 736 681 669 b 427 372 650 444 559 372 z "},"Q":{"ha":1164,"x_min":0,"x_max":0,"o":"m 703 1109 b 80 544 399 1123 129 878 b 497 -22 33 227 210 -9 b 793 48 602 -27 704 -1 b 1044 -52 852 -5 928 -46 l 1092 115 b 934 155 1025 117 975 132 b 1120 535 1029 252 1098 384 b 703 1109 1168 854 993 1096 z m 945 538 b 810 273 927 435 878 342 b 500 524 734 384 686 513 l 460 378 b 687 184 573 372 625 281 b 528 150 637 161 583 149 b 256 543 338 155 219 325 b 671 938 294 767 477 942 b 945 538 860 934 983 762 z "},"R":{"ha":917,"x_min":0,"x_max":0,"o":"m 872 740 b 554 1093 908 964 739 1093 l 239 1093 l 27 0 l 203 0 l 286 423 l 425 423 l 633 0 l 827 0 l 598 437 b 872 740 747 476 848 593 z m 696 744 b 456 566 680 646 592 566 l 313 566 l 382 923 l 526 923 b 696 744 631 923 712 852 z "},"Ŕ":{"ha":917,"x_min":0,"x_max":0,"o":"m 749 1405 l 599 1405 l 421 1183 l 545 1183 z m 872 740 b 554 1093 908 964 739 1093 l 239 1093 l 27 0 l 203 0 l 286 423 l 425 423 l 633 0 l 827 0 l 598 437 b 872 740 747 476 848 593 z m 696 744 b 456 566 680 646 592 566 l 313 566 l 382 923 l 526 923 b 696 744 631 923 712 852 z "},"Ř":{"ha":917,"x_min":0,"x_max":0,"o":"m 610 1194 l 861 1392 l 716 1392 l 575 1278 l 476 1392 l 347 1392 l 524 1194 z m 872 740 b 554 1093 908 964 739 1093 l 239 1093 l 27 0 l 203 0 l 286 423 l 425 423 l 633 0 l 827 0 l 598 437 b 872 740 747 476 848 593 z m 696 744 b 456 566 680 646 592 566 l 313 566 l 382 923 l 526 923 b 696 744 631 923 712 852 z "},"Ŗ":{"ha":917,"x_min":0,"x_max":0,"o":"m 872 740 b 554 1093 908 964 739 1093 l 239 1093 l 27 0 l 203 0 l 286 423 l 425 423 l 633 0 l 827 0 l 598 437 b 872 740 747 476 848 593 z m 696 744 b 456 566 680 646 592 566 l 313 566 l 382 923 l 526 923 b 696 744 631 923 712 852 z m 363 -83 b 265 -157 315 -83 273 -117 b 325 -222 258 -199 292 -222 b 328 -256 330 -232 330 -241 b 214 -353 314 -326 245 -353 b 252 -372 212 -359 226 -372 b 429 -193 329 -372 410 -293 b 363 -83 444 -118 408 -83 z "},"S":{"ha":824,"x_min":0,"x_max":0,"o":"m 359 -18 b 755 271 573 -18 722 104 b 537 621 787 425 691 530 b 357 816 442 675 339 720 b 524 945 369 884 436 945 b 699 819 608 945 679 896 l 838 913 b 549 1113 810 1026 697 1113 b 187 850 370 1113 219 1004 b 380 519 150 669 273 581 b 581 282 463 470 604 395 b 382 155 564 199 473 155 b 143 309 281 155 197 207 l 5 214 b 359 -18 54 81 174 -18 z "},"Ś":{"ha":824,"x_min":0,"x_max":0,"o":"m 551 1183 l 755 1405 l 605 1405 l 427 1183 z m 359 -18 b 755 271 573 -18 722 104 b 537 621 787 425 691 530 b 357 816 442 675 339 720 b 524 945 369 884 436 945 b 699 819 608 945 679 896 l 838 913 b 549 1113 810 1026 697 1113 b 187 850 370 1113 219 1004 b 380 519 150 669 273 581 b 581 282 463 470 604 395 b 382 155 564 199 473 155 b 143 309 281 155 197 207 l 5 214 b 359 -18 54 81 174 -18 z "},"Š":{"ha":824,"x_min":0,"x_max":0,"o":"m 868 1392 l 723 1392 l 582 1278 l 483 1392 l 354 1392 l 531 1194 l 617 1194 z m 359 -18 b 755 271 573 -18 722 104 b 537 621 787 425 691 530 b 357 816 442 675 339 720 b 524 945 369 884 436 945 b 699 819 608 945 679 896 l 838 913 b 549 1113 810 1026 697 1113 b 187 850 370 1113 219 1004 b 380 519 150 669 273 581 b 581 282 463 470 604 395 b 382 155 564 199 473 155 b 143 309 281 155 197 207 l 5 214 b 359 -18 54 81 174 -18 z "},"Ş":{"ha":824,"x_min":0,"x_max":0,"o":"m 537 621 b 357 816 442 675 339 720 b 524 945 369 884 436 945 b 699 819 608 945 679 896 l 838 913 b 549 1113 810 1026 697 1113 b 187 850 370 1113 219 1004 b 380 519 150 669 273 581 b 581 282 463 470 604 395 b 382 155 564 199 473 155 b 143 309 281 155 197 207 l 5 214 b 297 -14 49 96 147 5 l 204 -112 l 222 -142 b 264 -138 237 -139 252 -138 b 313 -176 306 -138 317 -155 b 112 -248 306 -217 244 -244 l 134 -353 b 433 -172 290 -350 414 -267 b 357 -73 444 -115 413 -73 b 327 -75 347 -73 338 -74 l 381 -18 b 755 271 583 -9 724 111 b 537 621 787 425 691 530 z "},"Ș":{"ha":824,"x_min":0,"x_max":0,"o":"m 359 -18 b 755 271 573 -18 722 104 b 537 621 787 425 691 530 b 357 816 442 675 339 720 b 524 945 369 884 436 945 b 699 819 608 945 679 896 l 838 913 b 549 1113 810 1026 697 1113 b 187 850 370 1113 219 1004 b 380 519 150 669 273 581 b 581 282 463 470 604 395 b 382 155 564 199 473 155 b 143 309 281 155 197 207 l 5 214 b 359 -18 54 81 174 -18 z m 218 -372 b 395 -193 294 -372 375 -293 b 329 -83 409 -118 373 -83 b 231 -157 280 -83 238 -117 b 290 -222 223 -199 257 -222 b 293 -256 296 -232 296 -241 b 179 -353 279 -326 211 -353 b 218 -372 178 -359 191 -372 z "},"ß":{"ha":1165,"x_min":0,"x_max":0,"o":"m 920 671 b 814 715 881 694 846 708 l 1065 981 b 670 1116 957 1066 841 1116 b 166 720 371 1116 212 954 l 26 0 l 203 0 l 342 720 b 626 957 368 846 441 957 b 814 908 697 957 763 941 l 576 652 b 799 553 637 637 737 591 b 943 309 919 477 957 394 b 736 151 926 211 848 151 b 497 294 631 151 541 209 l 373 189 b 709 -22 430 60 546 -22 b 1115 317 913 -22 1088 109 b 920 671 1136 479 1051 597 z "},"Ə":{"ha":1160,"x_min":0,"x_max":0,"o":"m 522 -8 b 1134 545 853 -8 1089 236 b 709 1101 1183 886 970 1102 b 379 1015 617 1101 477 1074 l 446 871 b 669 928 511 911 605 928 b 966 632 843 928 964 801 l 104 632 b 80 547 96 611 86 581 b 522 -8 34 283 160 -8 z m 547 165 b 246 459 366 165 251 300 l 932 459 b 547 165 864 274 712 165 z "},"T":{"ha":789,"x_min":0,"x_max":0,"o":"m 891 1093 l 165 1093 l 132 923 l 408 923 l 228 0 l 404 0 l 584 923 l 858 923 z "},"Ŧ":{"ha":789,"x_min":0,"x_max":0,"o":"m 858 923 l 891 1093 l 165 1093 l 132 923 l 408 923 l 347 608 l 172 608 l 148 485 l 322 485 l 228 0 l 404 0 l 498 485 l 673 485 l 696 608 l 523 608 l 584 923 z "},"Ť":{"ha":789,"x_min":0,"x_max":0,"o":"m 592 1194 l 843 1392 l 698 1392 l 557 1278 l 458 1392 l 329 1392 l 506 1194 z m 891 1093 l 165 1093 l 132 923 l 408 923 l 228 0 l 404 0 l 584 923 l 858 923 z "},"Ţ":{"ha":789,"x_min":0,"x_max":0,"o":"m 404 0 l 584 923 l 858 923 l 891 1093 l 165 1093 l 132 923 l 408 923 l 228 0 l 286 0 l 180 -112 l 197 -142 b 239 -138 213 -139 228 -138 b 289 -176 281 -138 293 -155 b 87 -248 281 -217 220 -244 l 110 -353 b 409 -172 265 -350 390 -267 b 333 -73 420 -115 389 -73 b 302 -75 322 -73 314 -74 l 374 0 z "},"Ț":{"ha":789,"x_min":0,"x_max":0,"o":"m 891 1093 l 165 1093 l 132 923 l 408 923 l 228 0 l 404 0 l 584 923 l 858 923 z m 305 -83 b 207 -157 256 -83 214 -117 b 267 -222 199 -199 233 -222 b 269 -256 272 -232 272 -241 b 155 -353 256 -326 187 -353 b 194 -372 154 -359 168 -372 b 371 -193 271 -372 351 -293 b 305 -83 385 -118 349 -83 z "},"U":{"ha":987,"x_min":0,"x_max":0,"o":"m 429 -20 b 897 428 651 -20 840 135 l 1025 1093 l 849 1093 l 720 429 b 456 153 685 247 581 153 b 276 429 322 153 245 271 l 405 1093 l 229 1093 l 99 428 b 429 -20 51 178 184 -20 z "},"Ú":{"ha":987,"x_min":0,"x_max":0,"o":"m 626 1183 l 830 1405 l 680 1405 l 502 1183 z m 429 -20 b 897 428 651 -20 840 135 l 1025 1093 l 849 1093 l 720 429 b 456 153 685 247 581 153 b 276 429 322 153 245 271 l 405 1093 l 229 1093 l 99 428 b 429 -20 51 178 184 -20 z "},"Û":{"ha":987,"x_min":0,"x_max":0,"o":"m 390 1194 l 535 1194 l 676 1308 l 774 1194 l 903 1194 l 726 1392 l 641 1392 z m 429 -20 b 897 428 651 -20 840 135 l 1025 1093 l 849 1093 l 720 429 b 456 153 685 247 581 153 b 276 429 322 153 245 271 l 405 1093 l 229 1093 l 99 428 b 429 -20 51 178 184 -20 z "},"Ü":{"ha":987,"x_min":0,"x_max":0,"o":"m 499 1217 b 584 1287 538 1217 576 1249 b 526 1359 591 1326 565 1359 b 441 1287 488 1359 449 1326 b 499 1217 433 1249 460 1217 z m 803 1217 b 888 1287 842 1217 880 1249 b 830 1359 896 1326 869 1359 b 746 1287 792 1359 753 1326 b 803 1217 738 1249 764 1217 z m 429 -20 b 897 428 651 -20 840 135 l 1025 1093 l 849 1093 l 720 429 b 456 153 685 247 581 153 b 276 429 322 153 245 271 l 405 1093 l 229 1093 l 99 428 b 429 -20 51 178 184 -20 z "},"Ù":{"ha":987,"x_min":0,"x_max":0,"o":"m 627 1183 l 751 1183 l 661 1405 l 509 1405 z m 429 -20 b 897 428 651 -20 840 135 l 1025 1093 l 849 1093 l 720 429 b 456 153 685 247 581 153 b 276 429 322 153 245 271 l 405 1093 l 229 1093 l 99 428 b 429 -20 51 178 184 -20 z "},"Ű":{"ha":987,"x_min":0,"x_max":0,"o":"m 422 1182 l 531 1182 l 706 1404 l 571 1404 z m 636 1182 l 750 1182 l 967 1404 l 822 1404 z m 429 -20 b 897 428 651 -20 840 135 l 1025 1093 l 849 1093 l 720 429 b 456 153 685 247 581 153 b 276 429 322 153 245 271 l 405 1093 l 229 1093 l 99 428 b 429 -20 51 178 184 -20 z "},"Ū":{"ha":987,"x_min":0,"x_max":0,"o":"m 460 1230 l 848 1230 l 865 1319 l 477 1319 z m 429 -20 b 897 428 651 -20 840 135 l 1025 1093 l 849 1093 l 720 429 b 456 153 685 247 581 153 b 276 429 322 153 245 271 l 405 1093 l 229 1093 l 99 428 b 429 -20 51 178 184 -20 z "},"Ų":{"ha":987,"x_min":0,"x_max":0,"o":"m 849 1093 l 720 429 b 456 153 685 247 581 153 b 276 429 322 153 245 271 l 405 1093 l 229 1093 l 99 428 b 363 -16 56 201 161 17 b 236 -205 294 -58 239 -125 b 412 -352 233 -296 298 -352 b 517 -339 442 -352 478 -348 l 496 -221 b 425 -231 466 -228 438 -231 b 359 -165 363 -231 357 -185 b 492 -16 363 -113 413 -68 b 897 428 686 11 845 163 l 1025 1093 z "},"Ů":{"ha":987,"x_min":0,"x_max":0,"o":"m 644 1162 b 814 1308 728 1162 800 1228 b 695 1454 829 1394 774 1454 b 523 1308 611 1454 537 1390 b 644 1162 509 1227 561 1162 z m 656 1236 b 596 1308 614 1236 589 1267 b 682 1380 604 1350 642 1380 b 741 1308 723 1380 749 1348 b 656 1236 733 1266 696 1236 z m 429 -20 b 897 428 651 -20 840 135 l 1025 1093 l 849 1093 l 720 429 b 456 153 685 247 581 153 b 276 429 322 153 245 271 l 405 1093 l 229 1093 l 99 428 b 429 -20 51 178 184 -20 z "},"V":{"ha":1010,"x_min":0,"x_max":0,"o":"m 922 1093 l 487 364 l 330 1093 l 149 1093 l 410 -22 l 432 -22 l 1127 1093 z "},"W":{"ha":1261,"x_min":0,"x_max":0,"o":"m 266 -10 l 288 -10 l 675 649 l 812 -10 l 833 -10 l 1379 1093 l 1182 1093 l 863 419 l 749 1047 l 741 1047 l 382 418 l 322 1093 l 149 1093 z "},"Ẃ":{"ha":1261,"x_min":0,"x_max":0,"o":"m 763 1183 l 967 1405 l 817 1405 l 639 1183 z m 266 -10 l 288 -10 l 675 649 l 812 -10 l 833 -10 l 1379 1093 l 1182 1093 l 863 419 l 749 1047 l 741 1047 l 382 418 l 322 1093 l 149 1093 z "},"Ŵ":{"ha":1261,"x_min":0,"x_max":0,"o":"m 527 1194 l 672 1194 l 813 1308 l 911 1194 l 1040 1194 l 863 1392 l 778 1392 z m 266 -10 l 288 -10 l 675 649 l 812 -10 l 833 -10 l 1379 1093 l 1182 1093 l 863 419 l 749 1047 l 741 1047 l 382 418 l 322 1093 l 149 1093 z "},"Ẅ":{"ha":1261,"x_min":0,"x_max":0,"o":"m 636 1217 b 721 1287 675 1217 713 1249 b 663 1359 728 1326 702 1359 b 578 1287 625 1359 586 1326 b 636 1217 570 1249 597 1217 z m 940 1217 b 1025 1287 979 1217 1017 1249 b 967 1359 1033 1326 1006 1359 b 883 1287 929 1359 890 1326 b 940 1217 875 1249 901 1217 z m 266 -10 l 288 -10 l 675 649 l 812 -10 l 833 -10 l 1379 1093 l 1182 1093 l 863 419 l 749 1047 l 741 1047 l 382 418 l 322 1093 l 149 1093 z "},"Ẁ":{"ha":1261,"x_min":0,"x_max":0,"o":"m 764 1183 l 888 1183 l 798 1405 l 646 1405 z m 266 -10 l 288 -10 l 675 649 l 812 -10 l 833 -10 l 1379 1093 l 1182 1093 l 863 419 l 749 1047 l 741 1047 l 382 418 l 322 1093 l 149 1093 z "},"X":{"ha":914,"x_min":0,"x_max":0,"o":"m -64 0 l 152 0 l 475 416 l 635 0 l 819 0 l 600 555 l 1024 1093 l 806 1093 l 516 714 l 372 1093 l 186 1093 l 391 582 z "},"Y":{"ha":889,"x_min":0,"x_max":0,"o":"m 278 0 l 453 0 l 544 467 l 1006 1093 l 798 1093 l 482 657 l 333 1093 l 149 1093 l 368 467 z "},"Ý":{"ha":889,"x_min":0,"x_max":0,"o":"m 577 1183 l 781 1405 l 631 1405 l 453 1183 z m 278 0 l 453 0 l 544 467 l 1006 1093 l 798 1093 l 482 657 l 333 1093 l 149 1093 l 368 467 z "},"Ŷ":{"ha":889,"x_min":0,"x_max":0,"o":"m 341 1194 l 486 1194 l 627 1308 l 726 1194 l 854 1194 l 677 1392 l 592 1392 z m 278 0 l 453 0 l 544 467 l 1006 1093 l 798 1093 l 482 657 l 333 1093 l 149 1093 l 368 467 z "},"ÿ":{"ha":889,"x_min":0,"x_max":0,"o":"m 450 1217 b 535 1287 489 1217 527 1249 b 477 1359 543 1326 516 1359 b 393 1287 439 1359 400 1326 b 450 1217 385 1249 412 1217 z m 754 1217 b 840 1287 793 1217 831 1249 b 781 1359 847 1326 821 1359 b 697 1287 743 1359 705 1326 b 754 1217 689 1249 715 1217 z m 278 0 l 453 0 l 544 467 l 1006 1093 l 798 1093 l 482 657 l 333 1093 l 149 1093 l 368 467 z "},"Ỳ":{"ha":889,"x_min":0,"x_max":0,"o":"m 578 1183 l 703 1183 l 612 1405 l 460 1405 z m 278 0 l 453 0 l 544 467 l 1006 1093 l 798 1093 l 482 657 l 333 1093 l 149 1093 l 368 467 z "},"Z":{"ha":863,"x_min":0,"x_max":0,"o":"m -16 0 l 720 0 l 754 171 l 297 171 l 932 1093 l 197 1093 l 164 923 l 621 923 z "},"Ź":{"ha":863,"x_min":0,"x_max":0,"o":"m 564 1183 l 768 1405 l 617 1405 l 439 1183 z m -16 0 l 720 0 l 754 171 l 297 171 l 932 1093 l 197 1093 l 164 923 l 621 923 z "},"Ž":{"ha":863,"x_min":0,"x_max":0,"o":"m 880 1392 l 734 1392 l 593 1278 l 494 1392 l 366 1392 l 543 1194 l 629 1194 z m -16 0 l 720 0 l 754 171 l 297 171 l 932 1093 l 197 1093 l 164 923 l 621 923 z "},"Ż":{"ha":863,"x_min":0,"x_max":0,"o":"m 589 1217 b 686 1297 633 1217 677 1253 b 620 1379 694 1341 664 1379 b 523 1297 575 1379 531 1341 b 589 1217 514 1253 543 1217 z m -16 0 l 720 0 l 754 171 l 297 171 l 932 1093 l 197 1093 l 164 923 l 621 923 z "},"i":{"ha":387,"x_min":0,"x_max":0,"o":"m 26 0 l 203 0 l 415 1093 l 239 1093 z "},"ı":{"ha":387,"x_min":0,"x_max":0,"o":"m 26 0 l 203 0 l 415 1093 l 239 1093 z "},".":{"ha":377,"x_min":0,"x_max":0,"o":"m 105 -31 b 235 83 169 -31 224 20 b 146 199 247 149 208 199 b 16 83 84 199 28 148 b 105 -31 5 18 43 -31 z "},",":{"ha":408,"x_min":0,"x_max":0,"o":"m 20 -250 b 254 26 122 -250 230 -117 b 161 199 274 141 227 199 b 28 79 101 199 40 152 b 106 -28 16 4 65 -28 b 106 -80 111 -39 112 -57 b -40 -218 85 -178 5 -218 b 20 -250 -41 -230 -20 -250 z "},":":{"ha":378,"x_min":0,"x_max":0,"o":"m 214 525 b 344 640 277 525 332 576 b 254 755 355 705 316 755 b 125 640 193 755 136 704 b 214 525 113 574 151 525 z m 111 -1 b 241 114 175 -1 230 51 b 152 229 253 179 213 229 b 22 114 90 229 34 179 b 111 -1 10 49 48 -1 z "},";":{"ha":408,"x_min":0,"x_max":0,"o":"m 233 525 b 363 640 297 525 352 576 b 274 755 375 705 335 755 b 144 640 212 755 156 704 b 233 525 132 574 170 525 z m 20 -250 b 254 26 122 -250 230 -117 b 161 199 274 141 227 199 b 28 79 101 199 40 152 b 106 -28 16 4 65 -28 b 106 -80 111 -39 112 -57 b -40 -218 85 -178 5 -218 b 20 -250 -41 -230 -20 -250 z "},"…":{"ha":1394,"x_min":0,"x_max":0,"o":"m 162 -31 b 292 83 226 -31 281 20 b 203 199 304 149 264 199 b 73 83 141 199 85 148 b 162 -31 62 18 99 -31 z m 608 -31 b 738 83 671 -31 727 20 b 648 199 749 149 710 199 b 519 83 587 199 530 148 b 608 -31 507 18 545 -31 z m 1054 -31 b 1184 83 1118 -31 1173 20 b 1095 199 1196 149 1156 199 b 965 83 1033 199 977 148 b 1054 -31 954 18 991 -31 z "},"!":{"ha":429,"x_min":0,"x_max":0,"o":"m 130 347 l 273 347 l 443 1093 l 250 1093 z m 131 -33 b 261 81 195 -33 250 18 b 172 196 273 146 233 196 b 42 81 110 196 54 146 b 131 -33 31 16 68 -33 z "},"¡":{"ha":429,"x_min":0,"x_max":0,"o":"m 294 821 b 163 707 230 821 175 770 b 253 592 152 642 191 592 b 382 707 315 592 371 642 b 294 821 394 772 356 821 z m 294 441 l 152 441 l -18 -305 l 175 -305 z "},"?":{"ha":698,"x_min":0,"x_max":0,"o":"m 218 346 l 378 347 b 383 374 379 355 380 363 b 726 823 438 615 680 570 b 463 1129 753 972 642 1129 b 165 989 345 1129 231 1069 l 198 852 b 420 963 242 913 332 963 b 567 812 519 963 584 903 b 222 366 543 680 270 606 b 218 346 220 356 219 351 z m 227 -33 b 357 81 291 -33 347 18 b 268 196 370 146 330 196 b 138 81 207 196 151 146 b 227 -33 127 16 165 -33 z "},"¿":{"ha":698,"x_min":0,"x_max":0,"o":"m 469 840 b 339 726 406 840 351 789 b 429 611 328 661 367 611 b 558 726 490 611 547 661 b 469 840 570 791 532 840 z m 479 461 l 319 460 b 314 433 318 452 317 444 b -29 -16 259 192 17 237 b 235 -322 -57 -165 55 -322 b 531 -182 352 -322 467 -262 l 498 -45 b 277 -156 454 -107 365 -156 b 130 -5 178 -156 113 -96 b 475 441 155 127 427 201 b 479 461 477 451 478 456 z "},"·":{"ha":377,"x_min":0,"x_max":0,"o":"m 192 418 b 322 532 256 418 311 469 b 233 648 334 597 294 648 b 103 532 171 648 115 597 b 192 418 92 467 130 418 z "},"•":{"ha":694,"x_min":0,"x_max":0,"o":"m 313 345 b 526 530 412 345 505 422 b 380 718 545 633 486 718 b 168 530 276 718 186 633 b 313 345 150 429 209 345 z "},"*":{"ha":553,"x_min":0,"x_max":0,"o":"m 267 641 l 377 641 l 395 829 l 503 718 l 579 808 l 429 892 l 612 980 l 571 1071 l 420 959 l 476 1148 l 366 1148 l 348 959 l 241 1071 l 164 980 l 315 895 l 131 808 l 172 718 l 323 831 z "},"#":{"ha":1029,"x_min":0,"x_max":0,"o":"m 973 654 l 1015 784 l 861 784 l 960 1093 l 817 1093 l 718 784 l 472 784 l 571 1093 l 428 1093 l 329 784 l 170 784 l 127 654 l 288 654 l 206 400 l 49 400 l 7 271 l 165 271 l 79 0 l 222 0 l 308 271 l 553 271 l 467 0 l 610 0 l 696 271 l 852 271 l 895 400 l 738 400 l 819 654 z m 595 400 l 349 400 l 431 654 l 676 654 z "},"/":{"ha":622,"x_min":0,"x_max":0,"o":"m -79 -81 l 92 -81 l 755 1175 l 585 1175 z "},"\\":{"ha":622,"x_min":0,"x_max":0,"o":"m 701 -81 l 37 1175 l -134 1175 l 530 -81 z "},"‥":{"ha":899,"x_min":0,"x_max":0,"o":"m 162 -31 b 292 83 226 -31 281 20 b 203 199 304 149 264 199 b 73 83 141 199 85 148 b 162 -31 62 18 99 -31 z m 559 -31 b 689 83 623 -31 677 20 b 600 199 701 149 661 199 b 470 83 538 199 481 148 b 559 -31 458 18 496 -31 z "},"(":{"ha":441,"x_min":0,"x_max":0,"o":"m 144 -81 l 294 -81 b 241 577 233 63 199 351 b 525 1175 286 812 360 962 l 376 1175 b 86 578 211 980 134 830 b 144 -81 42 345 77 55 z "},")":{"ha":441,"x_min":0,"x_max":0,"o":"m 108 -81 b 422 578 227 55 375 345 b 363 1175 471 830 453 980 l 214 1175 b 266 577 296 962 313 812 b -42 -81 220 351 75 63 z "},"{":{"ha":572,"x_min":0,"x_max":0,"o":"m 290 -81 l 425 -81 l 450 49 l 357 49 b 300 202 305 49 284 118 l 318 300 b 231 572 345 450 306 572 b 424 843 306 572 393 694 l 435 902 b 551 1043 454 989 493 1042 l 644 1045 l 669 1175 l 534 1175 b 307 962 415 1175 333 1095 l 286 865 b 95 624 258 732 176 624 l 75 519 b 172 278 156 519 196 410 l 146 132 b 290 -81 123 14 183 -81 z "},"}":{"ha":572,"x_min":0,"x_max":0,"o":"m 92 -81 b 319 132 199 -81 296 14 l 350 278 b 541 519 377 410 459 519 l 562 624 b 464 865 480 624 440 732 l 481 962 b 336 1175 507 1095 456 1175 l 202 1175 l 176 1045 l 269 1043 b 329 902 326 1042 345 989 l 317 843 b 406 572 291 694 330 572 b 212 300 330 572 244 450 l 192 202 b 75 49 175 118 127 49 l -17 49 l -42 -81 z "},"[":{"ha":459,"x_min":0,"x_max":0,"o":"m 530 1045 l 555 1175 l 254 1175 l 10 -81 l 311 -81 l 337 49 l 192 49 l 386 1045 z "},"]":{"ha":459,"x_min":0,"x_max":0,"o":"m 503 1175 l 203 1175 l 177 1045 l 321 1045 l 127 49 l -17 49 l -41 -81 l 259 -81 z "},"-":{"ha":616,"x_min":0,"x_max":0,"o":"m 62 458 l 573 458 l 602 608 l 92 608 z "},"–":{"ha":960,"x_min":0,"x_max":0,"o":"m 86 458 l 895 458 l 924 608 l 115 608 z "},"—":{"ha":1389,"x_min":0,"x_max":0,"o":"m 79 458 l 1330 458 l 1359 608 l 109 608 z "},"‒":{"ha":686,"x_min":0,"x_max":0,"o":"m 63 458 l 644 458 l 673 608 l 92 608 z "},"_":{"ha":781,"x_min":0,"x_max":0,"o":"m -91 -60 l 690 -60 l 713 60 l -68 60 z "},"‚":{"ha":336,"x_min":0,"x_max":0,"o":"m -4 -212 b 214 45 92 -212 192 -87 b 127 207 233 153 189 207 b 3 95 72 207 15 163 b 76 -4 -7 26 38 -4 b 77 -53 81 -15 82 -31 b -60 -182 57 -144 -18 -182 b -4 -212 -61 -193 -41 -212 z "},"„":{"ha":643,"x_min":0,"x_max":0,"o":"m -4 -213 b 214 44 92 -213 192 -88 b 127 205 233 151 189 205 b 3 94 71 205 15 161 b 76 -5 -8 24 38 -5 b 77 -54 81 -16 81 -33 b -60 -184 57 -146 -18 -184 b -4 -213 -61 -194 -41 -213 z m 303 -213 b 522 44 399 -213 499 -88 b 435 205 540 151 496 205 b 311 94 378 205 322 161 b 383 -5 299 24 345 -5 b 384 -54 388 -16 389 -33 b 248 -184 364 -146 290 -184 b 303 -213 246 -194 267 -213 z "},"“":{"ha":643,"x_min":0,"x_max":0,"o":"m 356 1110 b 138 853 260 1110 160 985 b 224 692 119 745 163 692 b 349 804 280 692 337 735 b 276 903 359 873 314 903 b 275 951 271 913 270 930 b 412 1080 295 1043 370 1080 b 356 1110 413 1090 393 1110 z m 663 1110 b 445 853 568 1110 467 985 b 532 692 427 745 471 692 b 656 804 587 692 644 735 b 583 903 667 873 621 903 b 583 951 578 913 577 930 b 719 1080 602 1043 677 1080 b 663 1110 720 1090 700 1110 z "},"”":{"ha":643,"x_min":0,"x_max":0,"o":"m 174 701 b 391 958 269 701 369 825 b 304 1120 410 1065 366 1120 b 181 1008 249 1120 192 1076 b 254 908 170 938 215 908 b 254 860 258 898 259 882 b 117 730 234 768 160 730 b 174 701 116 720 137 701 z m 481 701 b 699 958 576 701 676 825 b 612 1120 717 1065 673 1120 b 488 1008 556 1120 499 1076 b 561 908 477 938 522 908 b 562 860 565 898 566 882 b 425 730 541 768 467 730 b 481 701 423 720 444 701 z "},"‘":{"ha":336,"x_min":0,"x_max":0,"o":"m 356 1112 b 138 854 260 1112 160 987 b 224 693 119 747 163 693 b 349 805 281 693 337 736 b 276 904 360 874 314 904 b 275 952 271 914 271 931 b 412 1082 295 1044 370 1082 b 356 1112 413 1092 393 1112 z "},"’":{"ha":336,"x_min":0,"x_max":0,"o":"m 174 703 b 392 960 269 703 370 827 b 305 1122 410 1067 367 1122 b 182 1010 250 1122 193 1078 b 254 910 170 940 216 910 b 255 862 258 900 260 884 b 118 732 235 770 161 732 b 174 703 117 722 138 703 z "},"‛":{"ha":336,"x_min":0,"x_max":0,"o":"m 277 706 b 345 736 314 706 342 726 b 258 865 302 736 242 773 b 278 913 262 886 269 903 b 389 1013 316 913 373 943 b 309 1124 404 1081 364 1124 b 159 963 247 1124 182 1071 b 277 706 130 831 182 706 z "},"«":{"ha":804,"x_min":0,"x_max":0,"o":"m 511 871 l 396 895 l 83 560 l 258 185 l 368 208 l 242 544 z m 842 871 l 727 895 l 413 560 l 589 185 l 698 208 l 573 543 z "},"»":{"ha":804,"x_min":0,"x_max":0,"o":"m 245 779 l 136 755 l 261 420 l -9 93 l 107 68 l 420 403 z m 576 779 l 467 755 l 591 420 l 322 93 l 437 68 l 751 403 z "},"‹":{"ha":474,"x_min":0,"x_max":0,"o":"m 511 871 l 396 895 l 83 560 l 258 185 l 368 208 l 242 544 z "},"›":{"ha":474,"x_min":0,"x_max":0,"o":"m 245 779 l 136 756 l 261 420 l -9 94 l 107 69 l 420 404 z "},"\"":{"ha":521,"x_min":0,"x_max":0,"o":"m 157 765 l 262 765 l 367 1121 l 192 1121 z m 397 765 l 503 765 l 607 1121 l 433 1121 z "},"'":{"ha":279,"x_min":0,"x_max":0,"o":"m 157 765 l 262 765 l 366 1121 l 192 1121 z "},"　":{"ha":1389,"x_min":0,"x_max":0,"o":""}," ":{"ha":6250,"x_min":0,"x_max":0,"o":""}," ":{"ha":1389,"x_min":0,"x_max":0,"o":""}," ":{"ha":1389,"x_min":0,"x_max":0,"o":""}," ":{"ha":694,"x_min":0,"x_max":0,"o":""}," ":{"ha":694,"x_min":0,"x_max":0,"o":""}," ":{"ha":946,"x_min":0,"x_max":0,"o":""}," ":{"ha":347,"x_min":0,"x_max":0,"o":""}," ":{"ha":199,"x_min":0,"x_max":0,"o":""}," ":{"ha":326,"x_min":0,"x_max":0,"o":""}," ":{"ha":377,"x_min":0,"x_max":0,"o":""}," ":{"ha":231,"x_min":0,"x_max":0,"o":""}," ":{"ha":278,"x_min":0,"x_max":0,"o":""}," ":{"ha":463,"x_min":0,"x_max":0,"o":""},"​":{"ha":0,"x_min":0,"x_max":0,"o":""},"‍":{"ha":0,"x_min":0,"x_max":0,"o":""},"‌":{"ha":0,"x_min":0,"x_max":0,"o":""},"":{"ha":1351,"x_min":0,"x_max":0,"o":""},"฿":{"ha":863,"x_min":0,"x_max":0,"o":"m 622 616 b 777 806 680 629 756 696 b 590 1085 803 938 726 1054 l 618 1226 l 477 1226 l 451 1093 l 239 1093 l 26 0 l 249 0 l 218 -159 l 358 -159 l 389 0 l 402 0 b 814 319 629 0 781 131 b 622 616 845 503 742 616 z m 383 926 l 491 926 b 617 785 583 926 633 863 b 445 654 599 699 535 654 l 330 654 z m 650 330 b 418 168 632 233 549 168 l 235 168 l 300 503 l 484 503 b 650 330 600 503 668 433 z "},"₿":{"ha":863,"x_min":0,"x_max":0,"o":"m 622 616 b 777 806 680 629 756 696 b 657 1061 798 915 751 1013 l 689 1226 l 585 1226 l 557 1090 b 515 1093 544 1093 530 1093 l 473 1093 l 499 1226 l 395 1226 l 368 1093 l 239 1093 l 26 0 l 176 0 l 145 -159 l 250 -159 l 281 0 l 366 0 l 335 -159 l 439 -159 l 471 4 b 814 319 660 28 785 151 b 622 616 845 503 742 616 z m 617 785 b 445 654 599 699 535 654 l 330 654 l 383 926 l 491 926 b 617 785 583 926 633 863 z m 650 330 b 418 168 632 233 549 168 l 235 168 l 300 503 l 484 503 b 650 330 600 503 668 433 z "},"¢":{"ha":788,"x_min":0,"x_max":0,"o":"m 281 -67 l 416 -64 l 640 1086 l 505 1085 z "},"¤":{"ha":788,"x_min":0,"x_max":0,"o":"m 677 547 b 659 697 687 602 680 654 l 819 834 l 768 901 l 608 764 b 467 813 571 795 522 813 b 319 768 413 813 363 796 l 219 905 l 143 838 l 244 701 b 169 545 205 656 179 600 b 185 399 159 491 165 441 l 24 261 l 74 195 l 235 332 b 378 281 271 300 321 281 b 524 326 430 281 480 298 l 626 189 l 703 255 l 600 391 b 677 547 639 436 666 490 z m 402 414 b 302 547 334 414 289 470 b 439 680 313 615 368 680 b 543 547 503 680 557 627 b 402 414 531 478 475 414 z "},"$":{"ha":824,"x_min":0,"x_max":0,"o":"m 537 621 l 517 632 l 576 938 b 699 819 636 922 683 879 l 838 913 b 610 1108 814 1010 728 1088 l 633 1226 l 503 1226 l 479 1107 b 187 850 332 1083 215 984 b 366 527 151 676 263 589 l 296 169 b 143 309 234 191 181 237 l 5 214 b 262 -8 45 106 132 20 l 233 -159 l 363 -159 l 391 -18 b 755 271 588 -6 724 113 b 537 621 787 425 691 530 z m 357 816 b 444 926 365 861 397 903 l 401 706 b 357 816 368 735 348 770 z m 581 282 b 425 158 567 212 500 170 l 482 455 b 581 282 544 411 595 354 z "},"€":{"ha":1162,"x_min":0,"x_max":0,"o":"m 812 938 b 1069 775 915 938 998 890 l 1200 890 b 855 1111 1133 1021 1000 1101 b 252 684 638 1124 359 979 l 118 684 l 90 595 l 227 595 b 220 559 224 583 222 572 b 213 507 217 542 214 524 l 83 507 l 55 418 l 210 418 b 656 -18 220 160 393 -18 b 1049 138 806 -18 937 41 l 974 286 b 680 155 885 208 791 155 b 391 418 522 155 412 262 l 821 418 l 850 507 l 390 507 b 397 559 391 524 393 541 b 405 595 399 571 402 583 l 873 595 l 902 684 l 439 684 b 812 938 513 837 660 938 z "},"ƒ":{"ha":867,"x_min":0,"x_max":0,"o":"m 842 1104 b 456 784 629 1104 541 1005 l 394 620 l 131 620 l 107 496 l 347 496 l 313 408 b 81 172 230 189 170 172 l -14 172 l -48 0 l 81 0 b 474 343 307 0 390 125 l 532 496 l 796 496 l 819 620 l 580 620 l 618 720 b 843 931 692 914 749 931 l 937 931 l 971 1104 z "},"₣":{"ha":760,"x_min":0,"x_max":0,"o":"m 829 925 l 862 1096 l 239 1096 l 89 323 l -7 323 l -31 199 l 64 199 l 26 -1 l 202 -1 l 241 199 l 494 199 l 517 323 l 265 323 l 292 462 l 675 462 l 708 633 l 326 633 l 382 925 z "},"₭":{"ha":886,"x_min":0,"x_max":0,"o":"m 968 1093 l 759 1093 l 364 637 l 327 637 l 415 1093 l 239 1093 l 151 637 l 55 637 l 26 491 l 122 491 l 26 0 l 203 0 l 298 491 l 347 491 l 597 0 l 788 0 l 535 491 l 809 491 l 838 637 l 572 637 z "},"₤":{"ha":785,"x_min":0,"x_max":0,"o":"m 601 952 b 730 903 666 952 702 928 l 829 1032 b 613 1107 780 1082 701 1107 b 204 766 410 1107 248 990 b 193 651 196 725 193 687 l 104 651 l 85 553 l 197 553 b 201 490 199 531 200 510 l 73 490 l 54 391 l 198 391 l 196 378 b 87 155 183 304 144 224 l 7 155 l -23 0 l 653 0 l 683 155 l 265 155 b 370 377 320 218 357 303 l 372 391 l 549 391 l 568 490 l 375 490 b 368 553 373 511 370 532 l 581 553 l 600 651 l 364 651 b 374 728 366 675 368 700 b 601 952 405 875 481 952 z "},"₦":{"ha":1082,"x_min":0,"x_max":0,"o":"m 1120 637 l 1006 637 l 1096 1096 l 920 1096 l 831 637 l 605 637 l 274 1112 l 258 1112 l 165 637 l 52 637 l 23 491 l 137 491 l 41 -1 l 217 -1 l 313 491 l 508 491 l 863 -19 l 879 -19 l 978 491 l 1091 491 z m 341 637 l 355 710 l 406 637 z m 781 384 l 707 491 l 802 491 z "},"₱":{"ha":1050,"x_min":0,"x_max":0,"o":"m 958 765 l 1088 765 l 1110 879 l 946 879 b 636 1093 908 1015 784 1093 l 309 1093 l 268 879 l 124 879 l 102 765 l 245 765 l 234 706 l 90 706 l 68 593 l 212 593 l 97 0 l 273 0 l 347 379 l 497 379 b 911 593 696 379 840 461 l 1055 593 l 1076 706 l 950 706 b 954 726 951 713 953 719 b 958 765 956 739 957 752 z m 453 923 l 603 923 b 732 879 653 923 699 907 l 444 879 z m 410 706 l 422 765 l 786 765 b 784 727 787 753 786 741 l 780 706 z m 530 549 l 380 549 l 389 593 l 700 593 b 530 549 658 564 600 549 z "},"₽":{"ha":1019,"x_min":0,"x_max":0,"o":"m 709 1093 l 338 1093 l 237 570 l 84 570 l 54 410 l 205 410 l 184 299 l 31 299 l 7 175 l 159 175 l 125 0 l 297 0 l 331 175 l 649 175 l 673 299 l 355 299 l 377 410 l 561 410 b 1031 739 820 410 996 541 b 709 1093 1069 954 913 1093 z m 860 741 b 609 579 842 637 756 578 l 410 580 l 477 923 l 675 923 b 860 741 799 923 878 850 z "},"₨":{"ha":863,"x_min":0,"x_max":0,"o":"m 779 943 l 922 943 l 979 1093 l 269 1093 l 212 943 l 435 943 b 619 825 539 943 604 897 l 216 825 l 174 715 l 609 715 b 360 555 576 622 485 555 l 182 556 l 180 548 l 529 1 l 730 1 l 439 425 b 789 715 600 414 743 553 l 884 715 l 926 825 l 805 825 b 779 943 805 869 795 909 z "},"£":{"ha":785,"x_min":0,"x_max":0,"o":"m 375 728 b 601 952 405 875 481 952 b 730 903 666 952 702 928 l 829 1032 b 613 1107 781 1082 702 1107 b 205 766 410 1107 248 990 b 196 573 191 695 192 632 l 91 573 l 67 449 l 203 449 b 197 378 203 425 201 401 b 87 155 183 304 144 224 l 7 155 l -22 0 l 653 0 l 683 155 l 265 155 b 370 377 320 218 357 303 b 376 449 375 403 376 427 l 562 449 l 586 573 l 366 573 b 375 728 363 618 362 666 z "},"₸":{"ha":786,"x_min":0,"x_max":0,"o":"m 165 1093 l 134 928 l 856 928 l 888 1093 z m 82 663 l 351 663 l 227 0 l 402 0 l 526 663 l 804 663 l 836 828 l 114 828 z "},"₮":{"ha":821,"x_min":0,"x_max":0,"o":"m 858 923 l 891 1093 l 165 1093 l 132 923 l 408 923 l 346 605 l 144 511 l 121 395 l 323 489 l 303 387 l 101 293 l 79 177 l 281 271 l 228 0 l 404 0 l 475 362 l 681 458 l 703 574 l 497 478 l 517 580 l 723 676 l 745 792 l 540 696 l 584 923 z "},"₩":{"ha":1261,"x_min":0,"x_max":0,"o":"m 1379 1093 l 1182 1093 l 961 625 l 826 625 l 749 1047 l 741 1047 l 500 625 l 363 625 l 322 1093 l 149 1093 l 199 625 l 67 625 l 38 476 l 214 476 l 266 -10 l 288 -10 l 574 476 l 711 476 l 812 -10 l 833 -10 l 1074 476 l 1247 476 l 1276 625 l 1147 625 z m 661 625 l 675 649 l 680 625 z m 382 418 l 376 476 l 415 476 z m 863 419 l 853 476 l 890 476 z "},"¥":{"ha":962,"x_min":0,"x_max":0,"o":"m 1044 1093 l 835 1093 l 519 657 l 370 1093 l 186 1093 l 364 583 l 108 583 l 82 450 l 401 450 l 384 359 l 64 359 l 39 226 l 358 226 l 315 0 l 490 0 l 534 226 l 846 226 l 872 359 l 559 359 l 577 450 l 889 450 l 916 583 l 667 583 z "},"+":{"ha":839,"x_min":0,"x_max":0,"o":"m 769 589 l 534 589 l 590 880 l 433 880 l 376 589 l 140 589 l 110 430 l 345 430 l 289 138 l 446 138 l 503 430 l 739 430 z "},"−":{"ha":827,"x_min":0,"x_max":0,"o":"m 110 430 l 726 430 l 757 589 l 141 589 z "},"×":{"ha":899,"x_min":0,"x_max":0,"o":"m 867 783 l 771 906 l 488 647 l 311 896 l 189 795 l 370 540 l 80 275 l 176 153 l 461 412 l 637 165 l 758 266 l 578 519 z "},"÷":{"ha":1021,"x_min":0,"x_max":0,"o":"m 565 741 b 696 855 625 742 685 794 b 609 970 709 916 668 970 b 478 856 551 970 490 919 b 565 741 466 793 505 741 z m 114 450 l 924 450 l 952 594 l 142 594 z m 433 65 b 565 180 494 65 554 119 b 478 294 577 241 536 294 b 347 180 420 294 359 244 b 433 65 334 117 374 65 z "},"=":{"ha":882,"x_min":0,"x_max":0,"o":"m 151 637 l 822 637 l 851 788 l 180 788 z m 78 267 l 750 267 l 779 418 l 108 418 z "},"≠":{"ha":882,"x_min":0,"x_max":0,"o":"m 822 637 l 851 788 l 665 788 l 806 1052 l 692 1052 l 550 788 l 180 788 l 151 637 l 469 637 l 351 418 l 108 418 l 78 267 l 270 267 l 138 21 l 252 21 l 385 267 l 750 267 l 779 418 l 465 418 l 583 637 z "},">":{"ha":833,"x_min":0,"x_max":0,"o":"m 222 984 l 187 810 l 515 571 l 97 340 l 52 133 l 755 552 l 758 566 z "},"<":{"ha":833,"x_min":0,"x_max":0,"o":"m 840 984 l 136 566 l 133 552 l 669 133 l 704 307 l 376 546 l 795 778 z "},"≥":{"ha":851,"x_min":0,"x_max":0,"o":"m 267 1036 l 232 897 l 560 705 l 141 519 l 96 355 l 800 690 l 803 701 z m 43 84 l 641 84 l 665 208 l 68 208 z "},"≤":{"ha":858,"x_min":0,"x_max":0,"o":"m 874 1031 l 171 696 l 168 686 l 705 351 l 739 490 l 411 682 l 829 866 z m 51 84 l 648 84 l 672 208 l 75 208 z "},"±":{"ha":787,"x_min":0,"x_max":0,"o":"m 539 749 l 581 961 l 422 961 l 382 749 l 172 749 l 144 608 l 354 608 l 310 379 l 467 379 l 512 608 l 720 608 l 747 749 z m 56 152 l 631 152 l 658 288 l 83 288 z "},"≈":{"ha":860,"x_min":0,"x_max":0,"o":"m 244 585 b 361 697 273 652 310 697 b 588 581 448 697 464 581 b 825 768 650 581 760 607 l 729 810 b 611 699 700 743 663 699 b 385 815 526 699 509 815 b 148 627 323 815 213 788 z m 181 261 b 299 373 210 328 247 373 b 526 256 385 373 401 256 b 762 444 587 256 697 283 l 665 486 b 549 374 637 419 600 374 b 322 491 463 374 446 491 b 85 303 260 491 150 465 z "},"~":{"ha":1018,"x_min":0,"x_max":0,"o":"m 233 406 b 385 538 268 486 321 538 b 666 401 492 538 513 401 b 947 621 743 401 869 432 l 829 669 b 677 538 795 591 741 538 b 396 675 571 538 549 675 b 115 456 319 675 193 644 z "},"¬":{"ha":954,"x_min":0,"x_max":0,"o":"m 902 682 l 159 682 l 127 522 l 708 522 l 665 296 l 827 296 l 871 522 z "},"^":{"ha":618,"x_min":0,"x_max":0,"o":"m 667 742 l 456 1138 l 444 1138 l 81 742 l 236 742 l 420 943 l 528 742 z "},"∅":{"ha":966,"x_min":0,"x_max":0,"o":"m 839 873 l 1007 1084 l 873 1084 l 753 933 b 578 972 703 958 644 972 b 75 519 324 972 118 766 b 155 182 51 382 83 264 l 2 -10 l 136 -10 l 237 117 b 431 68 292 85 357 68 b 935 521 687 68 893 277 b 839 873 961 667 922 792 z m 213 519 b 551 824 241 682 377 824 b 652 806 588 824 622 818 l 256 309 b 213 519 216 363 199 436 z m 795 518 b 458 215 767 357 632 215 b 337 242 412 215 372 224 l 739 747 b 795 518 789 691 811 610 z "},"∞":{"ha":1507,"x_min":0,"x_max":0,"o":"m 1205 918 b 809 700 1067 918 920 833 b 482 918 747 831 628 918 b 81 549 275 918 115 743 b 358 180 42 334 172 180 b 753 399 496 180 643 266 b 1080 180 814 268 934 180 b 1482 550 1286 180 1448 356 b 1205 918 1520 762 1392 918 z m 389 333 b 227 549 283 333 206 423 b 458 766 248 671 347 766 b 711 549 564 766 659 679 b 389 333 610 416 490 333 z m 1335 549 b 1105 333 1316 432 1219 333 b 851 549 1001 333 904 414 b 1174 766 947 672 1066 766 b 1335 549 1280 766 1356 675 z "},"∫":{"ha":772,"x_min":0,"x_max":0,"o":"m -87 -205 l 12 -205 b 330 53 159 -205 275 -115 l 631 959 b 812 1133 665 1063 733 1133 l 881 1133 l 911 1287 l 813 1287 b 493 1029 665 1287 549 1197 l 193 123 b 12 -51 158 18 90 -51 l -57 -51 z "},"∏":{"ha":967,"x_min":0,"x_max":0,"o":"m 1110 1305 l 206 1305 l 175 1146 l 350 1146 l 91 -186 l 258 -186 l 517 1146 l 745 1146 l 486 -186 l 653 -186 l 912 1146 l 1080 1146 z "},"∑":{"ha":954,"x_min":0,"x_max":0,"o":"m 1052 1289 l 188 1289 l 186 1283 l 470 570 l -94 -158 l -102 -203 l 762 -203 l 792 -45 l 200 -44 l 656 542 l 656 544 l 429 1129 l 1021 1129 z "},"√":{"ha":734,"x_min":0,"x_max":0,"o":"m 1158 1419 l 804 1419 l 285 378 l 244 787 l 90 787 l 208 -56 l 222 -56 l 897 1259 l 1127 1259 z "},"µ":{"ha":907,"x_min":0,"x_max":0,"o":""},"∂":{"ha":851,"x_min":0,"x_max":0,"o":"m 368 -27 b 801 416 644 -27 758 208 b 562 1103 865 739 769 1009 l 416 1004 b 677 549 612 912 694 746 b 445 732 671 659 569 732 b 43 358 222 732 72 550 b 368 -27 14 156 126 -27 z m 380 136 b 209 358 250 136 186 240 b 451 569 231 473 327 569 b 619 345 573 569 646 475 b 380 136 595 228 501 136 z "},"%":{"ha":1135,"x_min":0,"x_max":0,"o":"m 341 600 b 622 853 484 600 599 719 b 420 1106 647 996 557 1106 b 139 852 277 1106 162 985 b 341 600 115 708 206 600 z m 54 0 l 204 0 l 1127 1094 l 978 1094 z m 359 713 b 246 852 286 713 233 772 b 401 993 259 927 325 993 b 513 852 474 993 527 932 b 359 713 501 779 436 713 z m 769 -14 b 1050 240 911 -14 1027 107 b 848 493 1075 383 984 493 b 567 239 706 493 590 374 b 769 -14 542 96 632 -14 z m 787 100 b 674 239 714 100 661 159 b 829 379 686 314 752 379 b 941 240 902 379 955 319 b 787 100 928 165 863 100 z "},"‰":{"ha":1676,"x_min":0,"x_max":0,"o":"m 341 600 b 622 853 484 600 599 719 b 420 1106 647 996 557 1106 b 139 852 277 1106 162 985 b 341 600 115 708 206 600 z m 54 0 l 204 0 l 1127 1094 l 978 1094 z m 359 713 b 246 852 286 713 233 772 b 401 993 259 927 325 993 b 513 852 474 993 527 932 b 359 713 501 779 436 713 z m 769 -14 b 1050 240 911 -14 1027 107 b 848 493 1075 383 984 493 b 567 239 706 493 590 374 b 769 -14 542 96 632 -14 z m 1310 -14 b 1590 240 1452 -14 1567 107 b 1388 493 1615 383 1525 493 b 1107 239 1246 493 1131 374 b 1310 -14 1082 96 1173 -14 z m 787 100 b 674 239 714 100 661 159 b 829 379 686 314 752 379 b 941 240 902 379 955 319 b 787 100 928 165 863 100 z m 1328 100 b 1215 239 1255 100 1201 159 b 1370 379 1227 314 1293 379 b 1482 240 1442 379 1495 319 b 1328 100 1469 165 1404 100 z "},"↑":{"ha":1457,"x_min":0,"x_max":0,"o":"m 1198 671 l 780 1102 l 362 671 l 452 581 l 705 838 l 705 -83 l 854 -83 l 854 838 l 1107 581 z "},"↗":{"ha":1457,"x_min":0,"x_max":0,"o":"m 548 934 l 548 806 l 908 809 l 257 158 l 363 52 l 1014 704 l 1011 343 l 1139 343 l 1148 943 z "},"→":{"ha":1457,"x_min":0,"x_max":0,"o":"m 920 942 l 830 852 l 1087 599 l 166 599 l 166 450 l 1087 450 l 830 197 l 920 106 l 1352 524 z "},"↘":{"ha":1457,"x_min":0,"x_max":0,"o":"m 591 114 l 1191 104 l 1181 705 l 1054 705 l 1057 344 l 406 995 l 300 890 l 951 239 l 591 241 z "},"↓":{"ha":1457,"x_min":0,"x_max":0,"o":"m 1050 468 l 798 211 l 798 1132 l 648 1132 l 648 211 l 395 468 l 305 378 l 723 -54 l 1141 378 z "},"↙":{"ha":1457,"x_min":0,"x_max":0,"o":"m 1247 902 l 1141 1007 l 490 356 l 493 717 l 366 717 l 356 116 l 956 125 l 956 254 l 595 250 z "},"←":{"ha":1457,"x_min":0,"x_max":0,"o":"m 1337 599 l 416 599 l 673 852 l 583 942 l 151 524 l 583 106 l 673 197 l 416 450 l 1337 450 z "},"↖":{"ha":1457,"x_min":0,"x_max":0,"o":"m 1200 147 l 549 798 l 909 795 l 909 923 l 309 932 l 318 332 l 446 332 l 443 693 l 1095 41 z "},"↔":{"ha":1457,"x_min":0,"x_max":0,"o":"m 967 942 l 877 852 l 1134 599 l 369 599 l 626 852 l 536 942 l 104 524 l 536 106 l 626 197 l 369 450 l 1134 450 l 877 197 l 967 106 l 1398 524 z "},"↕":{"ha":1457,"x_min":0,"x_max":0,"o":"m 1164 286 l 1074 376 l 821 119 l 821 884 l 1074 627 l 1164 717 l 747 1148 l 329 717 l 419 627 l 672 884 l 672 119 l 419 376 l 329 286 l 747 -146 z "},"◊":{"ha":846,"x_min":0,"x_max":0,"o":"m 348 30 l 717 528 l 542 1027 l 176 528 z m 378 229 l 285 513 l 512 828 l 608 545 z "},"@":{"ha":1540,"x_min":0,"x_max":0,"o":"m 594 -312 b 796 -275 672 -312 736 -300 l 798 -122 b 632 -153 741 -145 685 -153 b 226 360 372 -153 176 41 b 914 968 277 696 569 968 b 1319 477 1242 968 1365 725 b 1050 117 1288 311 1177 117 b 999 237 983 117 985 172 b 1010 279 1002 254 1008 273 l 1141 699 l 1015 699 l 956 576 b 801 705 960 645 909 703 b 458 389 626 707 488 562 b 654 101 430 224 513 101 b 859 231 743 101 832 150 b 1017 -14 824 85 859 -14 b 1506 505 1276 -14 1467 247 b 943 1135 1556 828 1364 1135 b 41 343 505 1135 104 800 b 594 -312 -15 -67 237 -312 z m 714 237 b 608 385 640 237 594 294 b 807 568 625 490 710 568 b 909 430 894 568 922 505 b 714 237 893 333 811 237 z "},"&":{"ha":1028,"x_min":0,"x_max":0,"o":"m 947 150 b 787 222 902 150 846 177 b 913 549 840 310 882 420 l 749 547 b 668 330 724 460 699 389 b 421 839 524 484 398 701 b 547 962 433 912 486 962 b 650 844 612 962 653 907 l 813 875 b 573 1120 814 1020 719 1120 b 250 845 409 1120 273 996 b 277 633 241 781 252 708 b 39 338 144 567 64 468 b 373 -21 0 133 124 -21 b 683 93 500 -21 602 19 b 915 -9 768 30 850 -9 z m 209 334 b 333 507 223 403 266 461 b 563 198 391 396 474 287 b 391 147 517 164 461 147 b 209 334 235 147 189 237 z "},"¶":{"ha":1021,"x_min":0,"x_max":0,"o":"m 611 1119 b 234 823 410 1119 268 1004 b 486 476 197 626 314 476 l 545 476 l 441 -59 l 563 -59 l 791 1119 z m 888 1119 l 658 -64 l 777 -64 l 1007 1119 z "},"§":{"ha":890,"x_min":0,"x_max":0,"o":"m 577 764 b 435 902 487 810 422 840 b 555 977 445 953 496 977 b 698 893 623 977 674 946 l 823 987 b 568 1136 805 1063 703 1136 b 281 928 422 1136 307 1053 b 322 755 267 857 288 800 b 216 599 264 715 228 660 b 382 359 193 472 294 402 b 538 201 463 321 554 276 b 401 119 526 146 464 119 b 207 231 313 119 237 168 l 98 125 b 380 -41 124 35 242 -41 b 691 186 532 -41 661 50 b 655 356 706 257 688 313 b 758 514 713 395 746 443 b 577 764 778 639 701 702 z m 366 593 b 443 663 372 627 402 650 l 445 661 b 607 514 514 627 621 588 b 544 447 601 481 574 460 l 514 463 b 366 593 428 505 354 530 z "},"©":{"ha":1133,"x_min":0,"x_max":0,"o":"m 501 -60 b 1092 473 798 -60 1046 166 b 659 1015 1135 768 971 1015 b 68 485 361 1015 114 790 b 501 -60 25 193 186 -60 z m 513 26 b 151 484 257 26 114 242 b 648 929 189 729 401 929 b 1010 472 904 929 1047 715 b 513 26 971 227 760 26 z m 536 149 b 744 235 608 149 692 174 l 696 328 b 559 274 658 294 607 274 b 399 509 449 274 372 380 b 614 689 421 621 508 689 b 749 634 674 689 721 667 l 828 730 b 630 815 777 785 716 815 b 278 509 460 815 313 695 b 536 149 241 307 359 149 z "},"®":{"ha":750,"x_min":0,"x_max":0,"o":"m 423 1093 b 76 790 255 1093 109 975 b 327 459 42 608 138 459 b 675 763 501 459 642 585 b 423 1093 707 943 613 1093 z m 621 762 b 336 509 592 609 473 509 b 130 789 180 509 102 637 b 414 1043 157 941 275 1043 b 621 762 570 1043 648 916 z m 403 949 l 304 949 l 239 610 l 294 610 l 319 741 l 363 741 l 427 610 l 488 610 l 417 745 b 502 840 463 758 494 794 b 403 949 513 909 460 949 z m 447 841 b 372 785 442 810 414 785 l 328 785 l 349 897 l 394 897 b 447 841 427 897 452 874 z "},"™":{"ha":884,"x_min":0,"x_max":0,"o":"m 896 1103 l 616 768 l 479 1103 l 470 1103 l 378 629 l 453 629 l 501 880 l 595 637 l 595 637 l 787 880 l 739 629 l 813 629 l 905 1103 z m 387 1021 l 400 1093 l 92 1093 l 79 1021 l 195 1021 l 119 629 l 194 629 l 270 1021 z "},"°":{"ha":467,"x_min":0,"x_max":0,"o":"m 310 748 b 520 932 418 748 505 829 b 361 1118 536 1041 467 1118 b 151 932 252 1118 165 1036 b 310 748 135 824 205 748 z m 323 827 b 230 932 262 827 222 871 b 349 1039 239 992 287 1039 b 441 933 409 1039 450 993 b 323 827 433 878 388 827 z "},"|":{"ha":427,"x_min":0,"x_max":0,"o":"m 13 -305 l 128 -305 l 432 1255 l 317 1255 z "},"¦":{"ha":427,"x_min":0,"x_max":0,"o":"m 184 576 l 300 576 l 432 1255 l 317 1255 z m 13 -305 l 128 -305 l 260 373 l 145 373 z "},"†":{"ha":467,"x_min":0,"x_max":0,"o":"m 557 951 l 394 951 l 427 1119 l 317 1119 l 285 951 l 122 951 l 104 861 l 267 861 l 100 0 l 210 0 l 376 861 l 539 861 z "},"‡":{"ha":467,"x_min":0,"x_max":0,"o":"m 540 861 l 557 951 l 395 951 l 427 1119 l 318 1119 l 286 951 l 123 951 l 105 861 l 268 861 l 151 258 l -13 258 l -31 168 l 134 168 l 101 0 l 210 0 l 243 168 l 405 168 l 422 258 l 260 258 l 377 861 z "},"℮":{"ha":1331,"x_min":0,"x_max":0,"o":"m 715 -22 b 1247 281 983 -22 1185 138 l 1181 281 b 716 39 1120 157 923 39 b 285 218 569 39 404 100 l 285 505 l 1297 505 b 1302 591 1299 524 1302 562 b 720 1109 1302 872 1051 1109 b 89 544 380 1109 89 860 b 715 -22 89 222 389 -22 z m 285 581 l 285 874 b 720 1049 397 982 555 1049 b 1120 888 884 1049 1023 983 l 1120 581 z "},"ʼ":{"ha":252,"x_min":0,"x_max":0,"o":"m 87 773 l 227 773 l 375 1119 l 210 1119 z "},"̈":{"ha":0,"x_min":0,"x_max":0,"o":"m -372 937 b -288 1008 -334 937 -296 969 b -345 1080 -280 1046 -307 1080 b -431 1008 -384 1080 -422 1046 b -372 937 -438 969 -412 937 z m -68 937 b 17 1008 -29 937 9 969 b -41 1080 24 1046 -2 1080 b -125 1008 -79 1080 -118 1046 b -68 937 -134 969 -107 937 z "},"̇":{"ha":0,"x_min":0,"x_max":0,"o":"m -218 937 b -121 1018 -174 937 -130 973 b -187 1100 -113 1062 -143 1100 b -284 1018 -232 1100 -276 1062 b -218 937 -293 974 -264 937 z "},"̀":{"ha":0,"x_min":0,"x_max":0,"o":"m -146 904 l -22 904 l -113 1126 l -264 1126 z "},"́":{"ha":0,"x_min":0,"x_max":0,"o":"m -183 904 l 21 1126 l -130 1126 l -307 904 z "},"̋":{"ha":0,"x_min":0,"x_max":0,"o":"m -489 903 l -380 903 l -205 1124 l -340 1124 z m -275 903 l -161 903 l 56 1124 l -90 1124 z "},"̂":{"ha":0,"x_min":0,"x_max":0,"o":"m -508 914 l -362 914 l -221 1028 l -123 914 l 6 914 l -171 1112 l -256 1112 z "},"̌":{"ha":0,"x_min":0,"x_max":0,"o":"m 10 1112 l -135 1112 l -276 998 l -375 1112 l -504 1112 l -327 914 l -241 914 z "},"̆":{"ha":0,"x_min":0,"x_max":0,"o":"m -214 916 b 9 1110 -99 916 -12 996 l -73 1110 b -205 994 -87 1042 -140 994 b -296 1110 -271 994 -308 1048 l -379 1110 b -214 916 -398 1006 -336 916 z "},"̊":{"ha":0,"x_min":0,"x_max":0,"o":"m -176 883 b -7 1029 -93 883 -20 949 b -125 1175 9 1114 -47 1175 b -298 1029 -210 1175 -283 1111 b -176 883 -312 947 -260 883 z m -165 956 b -224 1028 -206 956 -232 987 b -139 1101 -216 1071 -179 1101 b -80 1028 -98 1101 -72 1069 b -165 956 -87 987 -125 956 z "},"̃":{"ha":0,"x_min":0,"x_max":0,"o":"m -465 924 b -364 1013 -442 977 -407 1013 b -176 921 -293 1013 -279 921 b 11 1067 -125 921 -41 942 l -68 1100 b -169 1012 -91 1047 -127 1012 b -357 1104 -240 1012 -254 1104 b -544 958 -408 1104 -492 1083 z "},"̄":{"ha":0,"x_min":0,"x_max":0,"o":"m -406 950 l -18 950 l -1 1040 l -389 1040 z "},"̒":{"ha":0,"x_min":0,"x_max":0,"o":"m -118 1190 b -295 1010 -195 1190 -276 1111 b -229 901 -310 936 -274 901 b -132 976 -181 901 -139 936 b -191 1040 -123 1017 -158 1040 b -193 1075 -197 1050 -197 1059 b -80 1171 -180 1145 -112 1171 b -118 1190 -79 1177 -92 1190 z "},"̦":{"ha":0,"x_min":0,"x_max":0,"o":"m -288 -372 b -111 -193 -211 -372 -130 -293 b -176 -83 -96 -118 -132 -83 b -275 -157 -225 -83 -267 -117 b -215 -222 -282 -199 -248 -222 b -212 -256 -210 -232 -210 -241 b -326 -353 -226 -326 -294 -353 b -288 -372 -328 -359 -314 -372 z "},"̧":{"ha":0,"x_min":0,"x_max":0,"o":"m -357 -353 b -58 -172 -202 -350 -77 -267 b -134 -73 -47 -115 -79 -73 b -165 -75 -145 -73 -153 -74 l -77 18 l -164 18 l -288 -112 l -270 -142 b -228 -138 -254 -139 -239 -138 b -178 -176 -186 -138 -174 -155 b -380 -248 -186 -217 -248 -244 z "},"̨":{"ha":0,"x_min":0,"x_max":0,"o":"m -81 -345 l -102 -227 b -174 -236 -133 -233 -161 -236 b -239 -171 -235 -236 -241 -191 b -75 0 -235 -112 -172 -62 l -155 16 b -363 -210 -258 -16 -358 -101 b -187 -357 -366 -302 -301 -357 b -81 -345 -157 -357 -121 -353 z "},"̵":{"ha":0,"x_min":0,"x_max":0,"o":"m -528 442 l -3 442 l 20 566 l -505 566 z "},"̶":{"ha":0,"x_min":0,"x_max":0,"o":"m -718 486 l 277 486 l 300 610 l -694 610 z "},"̷":{"ha":0,"x_min":0,"x_max":0,"o":"m -487 652 l 43 984 l 70 1122 l -460 789 z "},"̸":{"ha":0,"x_min":0,"x_max":0,"o":"m -852 -71 l -705 -71 l 121 871 l -24 871 z "},"¨":{"ha":407,"x_min":0,"x_max":0,"o":"m 35 937 b 119 1008 73 937 111 969 b 62 1080 127 1046 100 1080 b -24 1008 23 1080 -16 1046 b 35 937 -31 969 -5 937 z m 338 937 b 424 1008 378 937 416 969 b 366 1080 431 1046 405 1080 b 281 1008 328 1080 289 1046 b 338 937 273 969 300 937 z "},"˙":{"ha":407,"x_min":0,"x_max":0,"o":"m 189 937 b 286 1018 233 937 277 973 b 220 1100 294 1062 264 1100 b 123 1018 175 1100 131 1062 b 189 937 114 974 143 937 z "},"`":{"ha":407,"x_min":0,"x_max":0,"o":"m 140 904 l 264 904 l 173 1126 l 22 1126 z "},"´":{"ha":407,"x_min":0,"x_max":0,"o":"m 102 904 l 307 1126 l 156 1126 l -22 904 z "},"˝":{"ha":407,"x_min":0,"x_max":0,"o":"m -32 903 l 77 903 l 252 1124 l 117 1124 z m 182 903 l 296 903 l 513 1124 l 368 1124 z "},"ˆ":{"ha":407,"x_min":0,"x_max":0,"o":"m -45 914 l 101 914 l 242 1028 l 340 914 l 469 914 l 292 1112 l 207 1112 z "},"ˇ":{"ha":407,"x_min":0,"x_max":0,"o":"m 473 1112 l 328 1112 l 187 998 l 88 1112 l -41 1112 l 136 914 l 222 914 z "},"˘":{"ha":407,"x_min":0,"x_max":0,"o":"m 193 916 b 416 1110 308 916 395 996 l 334 1110 b 202 994 320 1042 267 994 b 111 1110 136 994 99 1048 l 28 1110 b 193 916 9 1006 71 916 z "},"˚":{"ha":407,"x_min":0,"x_max":0,"o":"m 127 883 b 297 1029 211 883 283 949 b 178 1175 312 1114 257 1175 b 6 1029 94 1175 20 1111 b 127 883 -8 947 44 883 z m 139 956 b 79 1028 98 956 72 987 b 165 1101 87 1071 125 1101 b 224 1028 206 1101 232 1069 b 139 956 216 987 179 956 z "},"˜":{"ha":479,"x_min":0,"x_max":0,"o":"m 68 924 b 169 1013 91 977 126 1013 b 357 921 240 1013 254 921 b 544 1067 408 921 492 942 l 465 1100 b 364 1012 442 1047 406 1012 b 176 1104 293 1012 279 1104 b -11 958 125 1104 41 1083 z "},"¯":{"ha":407,"x_min":0,"x_max":0,"o":"m 1 950 l 389 950 l 406 1040 l 18 1040 z "},"¸":{"ha":407,"x_min":0,"x_max":0,"o":"m 50 -353 b 349 -172 205 -350 330 -267 b 273 -73 359 -115 328 -73 b 242 -75 262 -73 254 -74 l 330 18 l 243 18 l 119 -112 l 137 -142 b 179 -138 153 -139 168 -138 b 229 -176 221 -138 233 -155 b 27 -248 221 -217 159 -244 z "},"˛":{"ha":407,"x_min":0,"x_max":0,"o":"m 326 -345 l 304 -227 b 233 -236 274 -233 246 -236 b 168 -171 172 -236 165 -191 b 332 0 172 -112 235 -62 l 252 16 b 44 -210 149 -16 49 -101 b 220 -357 41 -302 106 -357 b 326 -345 250 -357 286 -353 z "}}}
